<?xml version="1.0" encoding="UTF-8" standalone="no"?>
<!-- Created with Inkscape (http://www.inkscape.org/) -->

<svg
   xmlns:dc="http://purl.org/dc/elements/1.1/"
   xmlns:cc="http://creativecommons.org/ns#"
   xmlns:rdf="http://www.w3.org/1999/02/22-rdf-syntax-ns#"
   xmlns:svg="http://www.w3.org/2000/svg"
   xmlns="http://www.w3.org/2000/svg"
   xmlns:xlink="http://www.w3.org/1999/xlink"
   xmlns:sodipodi="http://sodipodi.sourceforge.net/DTD/sodipodi-0.dtd"
   xmlns:inkscape="http://www.inkscape.org/namespaces/inkscape"
   width="624"
   height="284"
   viewBox="0 0 624 284"
   id="svg4256"
   version="1.1"
   inkscape:version="0.91 r"
   inkscape:export-filename="/home/marcin/MultiDevice_Share/control_your_woman/media/graphics/button_center_down.png"
   inkscape:export-xdpi="90"
   inkscape:export-ydpi="90"
   sodipodi:docname="button_center_down.svg">
  <defs
     id="defs4258">
    <marker
       inkscape:stockid="Arrow1Lstart"
       orient="auto"
       refY="0.0"
       refX="0.0"
       id="marker4440"
       style="overflow:visible"
       inkscape:isstock="true">
      <path
         id="path4442"
         d="M 0.0,0.0 L 5.0,-5.0 L -12.5,0.0 L 5.0,5.0 L 0.0,0.0 z "
         style="fill-rule:evenodd;stroke:none;stroke-width:1pt;stroke-opacity:1;fill:#000000;fill-opacity:1"
         transform="scale(0.8) translate(12.5,0)" />
    </marker>
    <marker
       inkscape:stockid="Arrow1Lstart"
       orient="auto"
       refY="0.0"
       refX="0.0"
       id="marker4418"
       style="overflow:visible"
       inkscape:isstock="true">
      <path
         id="path4420"
         d="M 0.0,0.0 L 5.0,-5.0 L -12.5,0.0 L 5.0,5.0 L 0.0,0.0 z "
         style="fill-rule:evenodd;stroke:none;stroke-width:1pt;stroke-opacity:1;fill:#000000;fill-opacity:1"
         transform="scale(0.8) translate(12.5,0)" />
    </marker>
    <marker
       inkscape:stockid="Arrow1Lstart"
       orient="auto"
       refY="0.0"
       refX="0.0"
       id="Arrow1Lstart"
       style="overflow:visible"
       inkscape:isstock="true">
      <path
         id="path4148"
         d="M 0.0,0.0 L 5.0,-5.0 L -12.5,0.0 L 5.0,5.0 L 0.0,0.0 z "
         style="fill-rule:evenodd;stroke:none;stroke-width:1pt;stroke-opacity:1;fill:#000000;fill-opacity:1"
         transform="scale(0.8) translate(12.5,0)" />
    </marker>
    <linearGradient
       id="linearGradient4163"
       inkscape:collect="always">
      <stop
         id="stop4165"
         offset="0"
         style="stop-color:#cfcfcf;stop-opacity:1" />
      <stop
         id="stop4167"
         offset="1"
         style="stop-color:#000000;stop-opacity:1" />
    </linearGradient>
    <linearGradient
       gradientTransform="translate(176.62595,575.14144)"
       inkscape:collect="always"
       xlink:href="#linearGradient4163"
       id="linearGradient4192-4"
       x1="-217.58015"
       y1="112.38354"
       x2="98.599579"
       y2="91.257095"
       gradientUnits="userSpaceOnUse" />
    <filter
       inkscape:collect="always"
       style="color-interpolation-filters:sRGB"
       id="filter5840-0"
       x="-0.0079906369"
       width="1.0159813"
       y="-0.0034302941"
       height="1.0068606">
      <feGaussianBlur
         inkscape:collect="always"
         stdDeviation="0.28947719"
         id="feGaussianBlur5842-9" />
    </filter>
    <filter
       inkscape:collect="always"
       style="color-interpolation-filters:sRGB"
       id="filter4212"
       x="-0.050000000000000003"
       width="1.1700000000000002"
       y="-0.04253849"
       height="1.085077">
      <feGaussianBlur
         inkscape:collect="always"
         stdDeviation="1.6296074"
         id="feGaussianBlur4214" />
    </filter>
    <filter
       inkscape:collect="always"
       style="color-interpolation-filters:sRGB"
       id="filter4254"
       x="-0.0055171661"
       width="1.0110343"
       y="-0.010359978"
       height="1.02072">
      <feGaussianBlur
         inkscape:collect="always"
         stdDeviation="1.0705785"
         id="feGaussianBlur4256" />
    </filter>
  </defs>
  <sodipodi:namedview
     id="base"
     pagecolor="#ffffff"
     bordercolor="#666666"
     borderopacity="1.0"
     inkscape:pageopacity="0.0"
     inkscape:pageshadow="2"
     inkscape:zoom="1.355288"
     inkscape:cx="186.93433"
     inkscape:cy="206.5209"
     inkscape:document-units="px"
     inkscape:current-layer="layer1"
     showgrid="false"
     showguides="false"
     units="px"
     inkscape:window-width="1680"
     inkscape:window-height="1027"
     inkscape:window-x="0"
     inkscape:window-y="0"
     inkscape:window-maximized="1" />
  <metadata
     id="metadata4261">
    <rdf:RDF>
      <cc:Work
         rdf:about="">
        <dc:format>image/svg+xml</dc:format>
        <dc:type
           rdf:resource="http://purl.org/dc/dcmitype/StillImage" />
        <dc:title />
      </cc:Work>
    </rdf:RDF>
  </metadata>
  <g
     inkscape:label="Layer 1"
     inkscape:groupmode="layer"
     id="layer1"
     style="opacity:1"
     transform="translate(0,-768.36216)">
    <path
       inkscape:connector-curvature="0"
       style="opacity:1;fill:#000000;fill-opacity:1;stroke:none;stroke-width:1.21500003;stroke-miterlimit:3.9000001;stroke-dasharray:none;stroke-dashoffset:0;stroke-opacity:1;filter:url(#filter4212)"
       d="m 302.44782,394.41032 c -2.19186,0 -3.60691,2.44676 -5.2014,4.38092 -1.59448,1.93415 -3.13542,3.89644 -4.62365,5.88637 -1.48827,1.98993 -2.92363,4.00637 -4.30566,6.04821 -1.38202,2.04186 -2.71179,4.10885 -3.98759,6.19877 -1.27578,2.08994 -2.49814,4.20385 -3.66769,6.33802 -1.16958,2.13417 -2.28636,4.28955 -3.34967,6.4641 -1.06331,2.17457 -2.07267,4.36777 -3.02976,6.57889 -0.95707,2.21111 -1.86089,4.43859 -2.71172,6.6824 -0.85084,2.24382 -1.64908,4.5038 -2.39369,6.77648 -0.74461,2.27268 -1.43542,4.55971 -2.07379,6.85741 -0.63835,2.2977 -1.22361,4.60628 -1.75574,6.92515 -0.53212,2.31889 -1.01186,4.64728 -1.43772,6.98349 -0.42588,2.33621 -0.7982,4.68082 -1.11782,7.03053 -0.31963,2.34969 -0.5864,4.70505 -0.79977,7.0644 -0.21338,2.35935 -0.37461,4.72184 -0.48175,7.08701 -0.10108,2.23166 -0.15159,4.46581 -0.15808,6.69933 -0.002,0 -0.002,0 -0.004,0 2e-5,0.0665 0.002,0.13299 0.002,0.19947 -9e-5,0.0671 -0.002,0.13424 -0.002,0.20136 0.002,0 0.002,0 0.004,0 0.007,2.23351 0.0571,4.46767 0.15808,6.69933 0.10714,2.36516 0.26837,4.72764 0.48175,7.08698 0.21337,2.35935 0.48014,4.71472 0.79977,7.06441 0.31962,2.3497 0.69194,4.69432 1.11782,7.03054 0.42586,2.33619 0.9056,4.6646 1.43772,6.98348 0.53213,2.31887 1.11739,4.62745 1.75574,6.92515 0.63835,2.29771 1.32917,4.58473 2.07379,6.85741 0.74461,2.27268 1.54285,4.53078 2.39369,6.77461 0.85083,2.24381 1.75465,4.47316 2.71172,6.68427 0.95708,2.21112 1.96644,4.40432 3.02976,6.57889 1.06333,2.17456 2.18011,4.32993 3.34966,6.46411 1.16956,2.13416 2.39191,4.24619 3.66769,6.33613 1.27578,2.08992 2.60558,4.1569 3.9876,6.19875 1.38203,2.04185 2.81737,4.06017 4.30565,6.05011 1.48823,1.98993 3.02918,3.95221 4.62366,5.88637 1.5945,1.93417 3.00954,4.38092 5.2014,4.38092 0,0 0.87375,0.20077 2.87167,-1.79716 l 3.13137,-3.13137 3.1295,-3.12949 3.13137,-3.13137 3.13138,-3.13137 3.12949,-3.1295 3.13137,-3.13137 3.1295,-3.12949 3.13137,-3.13138 3.13137,-3.13137 3.12948,-3.12948 3.13137,-3.13137 3.1295,-3.1295 3.13137,-3.13137 c 0,0 2.25264,-1.94572 3.13137,-3.13137 0.70432,-0.9503 1.66726,-1.94666 1.66919,-3.1295 0.004,-2.33777 -1.80541,-4.07973 -3.28004,-6.19875 -1.47462,-2.11904 -2.84215,-4.28937 -4.10616,-6.50174 -1.26399,-2.21237 -2.42426,-4.46821 -3.47763,-6.75955 -1.05336,-2.29135 -2.00072,-4.61811 -2.84345,-6.97408 -0.84274,-2.35596 -1.58092,-4.74097 -2.21304,-7.14721 -0.6321,-2.40623 -1.15737,-4.83302 -1.57886,-7.27516 -0.42147,-2.44215 -0.7376,-4.89993 -0.94843,-7.36362 -0.20578,-2.40427 -0.30911,-4.81497 -0.31427,-7.22625 0.005,-2.41128 0.10849,-4.82199 0.31427,-7.22624 0.21083,-2.46371 0.52696,-4.91961 0.94843,-7.36176 0.42149,-2.44214 0.94676,-4.87081 1.57886,-7.27704 0.63213,-2.40624 1.37029,-4.79125 2.21304,-7.14721 0.84273,-2.35597 1.79008,-4.68273 2.84345,-6.97408 1.05337,-2.29134 2.21365,-4.54719 3.47763,-6.75955 1.26401,-2.21237 2.63154,-4.38082 4.10616,-6.49986 1.47463,-2.11902 3.28421,-3.86098 3.28004,-6.19875 -0.002,-1.18285 -0.96487,-2.18108 -1.66919,-3.13138 -0.87873,-1.18565 -3.13137,-3.12949 -3.13137,-3.12949 l -3.13137,-3.13138 -3.1295,-3.13137 -3.13137,-3.12948 -3.12948,-3.13138 -3.13137,-3.12948 -3.13137,-3.13138 -3.1295,-3.13137 -3.13137,-3.12949 -3.12949,-3.13138 -3.13138,-3.12949 -3.13137,-3.13137 -3.1295,-3.13138 -3.13137,-3.12949 c -1.99792,-1.99793 -2.87167,-1.79715 -2.87167,-1.79715 z"
       id="path5643-5-8"
       transform="matrix(0,-2.9489195,2.8696508,0,-1124.5572,1814.3916)" />
    <path
       style="display:inline;opacity:1;fill:url(#linearGradient4192-4);fill-opacity:1;stroke:#7c7c7c;stroke-width:0.70570594;stroke-miterlimit:3.9000001;stroke-dasharray:none;stroke-dashoffset:0;stroke-opacity:1;filter:url(#filter5840-0)"
       d="m 44.298585,559.73353 c -2.13,0 -3.5051,2.37768 -5.05458,4.25725 -1.54949,1.87957 -3.04692,3.78646 -4.49317,5.72024 -1.44625,1.93376 -2.84109,3.89327 -4.1841,5.87748 -1.34302,1.98423 -2.63527,3.99288 -3.87506,6.02381 -1.23977,2.03094 -2.42763,4.08518 -3.56416,6.15912 -1.13655,2.07392 -2.22182,4.16846 -3.25512,6.28165 -1.0333,2.11318 -2.01417,4.24449 -2.94423,6.39319 -0.93007,2.14869 -1.80837,4.3133 -2.63519,6.49378 -0.82683,2.18048 -1.60255,4.37667 -2.32612,6.5852 -0.7236,2.20854 -1.39491,4.43101 -2.0152596,6.66386 -0.62034,2.23284 -1.18909,4.47626 -1.70618,6.72968 -0.51711,2.25343 -0.9833,4.51611 -1.39714,6.78637 -0.41387,2.27028 -0.77567,4.54871 -1.08627,6.83208 -0.31061,2.28338 -0.56984,4.57226 -0.7772,6.86501 -0.20735,2.29276 -0.36404,4.58855 -0.46815,6.88695 -0.0982,2.16868 -0.14731,4.33977 -0.15362,6.51025 -0.002,0 -0.002,0 -0.004,0 2e-5,0.0646 0.002,0.12924 0.002,0.19384 -1.1e-4,0.0652 -0.002,0.13045 -0.002,0.19566 0.002,0 0.002,0 0.004,0 0.006,2.17048 0.0554,4.34157 0.15362,6.51025 0.10411,2.2984 0.2608,4.59419 0.46815,6.88695 0.20736,2.29275 0.46659,4.58163 0.7772,6.865 0.3106,2.28338 0.6724,4.56181 1.08627,6.83209 0.41384,2.27026 0.88003,4.53294 1.39714,6.78637 0.51709,2.25342 1.08584,4.49683 1.70618,6.72968 0.6203296,2.23286 1.2916596,4.45532 2.0152596,6.66385 0.72357,2.20853 1.49929,4.4029 2.32612,6.58338 0.82681,2.18049 1.70512,4.34691 2.63519,6.49561 0.93006,2.1487 1.91094,4.28001 2.94423,6.39319 1.03331,2.11319 2.11858,4.20772 3.25512,6.28165 1.13654,2.07394 2.32439,4.12635 3.56416,6.15729 1.23978,2.03094 2.53204,4.03958 3.87506,6.0238 1.343,1.98421 2.73785,3.94556 4.1841,5.87932 1.44624,1.93378 2.94368,3.84066 4.49317,5.72023 1.54949,1.87958 2.92457,4.25726 5.05458,4.25726 0,0 0.84908,0.1951 2.79062,-1.74643 l 3.04298,-3.04299 3.04116,-3.04114 3.04298,-3.04299 3.04299,-3.04299 3.04116,-3.04116 3.04298,-3.04299 3.04118,-3.04115 3.04298,-3.04299 3.04299,-3.04299 3.04115,-3.04115 3.04298,-3.04299 3.04117,-3.04116 3.04298,-3.04298 c 0,0 2.18905,-1.89081 3.04299,-3.04299 0.68442,-0.92348 1.62019,-1.89171 1.62207,-3.04116 0.004,-2.27179 -1.75446,-3.96458 -3.18746,-6.0238 -1.43299,-2.05922 -2.76192,-4.16829 -3.99025,-6.31822 -1.22833,-2.14992 -2.35584,-4.34207 -3.37948,-6.56874 -1.02363,-2.22667 -1.94424,-4.48776 -2.76319,-6.77723 -0.81895,-2.28947 -1.53631,-4.60716 -2.15057,-6.94547 -0.61427,-2.33831 -1.12472,-4.69662 -1.5343,-7.06982 -0.40958,-2.37321 -0.71677,-4.76162 -0.92167,-7.15578 -0.19995,-2.33641 -0.30037,-4.67905 -0.30539,-7.02227 0.005,-2.34322 0.10544,-4.68588 0.30539,-7.02228 0.2049,-2.39415 0.51209,-4.78074 0.92167,-7.15394 0.40958,-2.37322 0.92003,-4.73334 1.5343,-7.07166 0.61427,-2.33831 1.33161,-4.656 2.15057,-6.94547 0.81895,-2.28946 1.73955,-4.55055 2.76319,-6.77723 1.02364,-2.22666 2.15116,-4.41883 3.37948,-6.56875 1.22833,-2.14992 2.55726,-4.25717 3.99025,-6.31639 1.433,-2.05921 3.19151,-3.752 3.18746,-6.02379 -0.002,-1.14945 -0.93765,-2.11951 -1.62207,-3.04299 -0.85394,-1.15218 -3.04299,-3.04116 -3.04299,-3.04116 l -3.04298,-3.04298 -3.04117,-3.04299 -3.04298,-3.04116 -3.04115,-3.04299 -3.04299,-3.04115 -3.04298,-3.04298 -3.04118,-3.04299 -3.04298,-3.04116 -3.04116,-3.04299 -3.04299,-3.04116 -3.04298,-3.04298 -3.04116,-3.04299 -3.04298,-3.04116 c -1.94154,-1.94154 -2.79062,-1.74642 -2.79062,-1.74642 z"
       id="path5643-3-3"
       inkscape:connector-curvature="0"
       transform="matrix(0,-2.8340415,2.8340415,0,-1566.9992,1045.9187)" />
    <g
       style="opacity:0.9;filter:url(#filter4254)"
       id="g4248"
       transform="matrix(0.52330833,0,0,0.52330833,164.99705,805.47811)">
      <g
         id="g4206">
        <path
           id="path4208"
           d="m 465.708,232.847 -30.725,-30.729 0.002,-0.002 -32.908,-32.909 -24.034,-24.037 c -5.31,-5.375 -11.123,-9.938 -13.577,-11.753 -21.583,-15.965 -47.113,-24.568 -74.102,-24.568 -26.707,0 -52.059,8.333 -73.43,24.078 -0.377,0.278 -0.763,0.538 -1.137,0.821 -0.021,0.016 -0.041,0.032 -0.061,0.048 0,0 -7.878,6.124 -13.057,11.374 l -37.903,37.907 -18.633,18.633 0.001,0.001 -19.896,19.898 c -11.074,-9.525 -25.026,-14.735 -39.786,-14.735 -16.332,0 -31.682,6.359 -43.222,17.905 L 0,268.007 43.237,311.232 c 11.542,11.548 26.893,17.907 43.224,17.907 16.331,0 31.684,-6.359 43.23,-17.906 l 20.579,-20.578 0,66.18 85.09,0 0,-12.844 c 17.297,8.573 36.144,12.869 54.995,12.869 18.855,0 37.708,-4.298 55.01,-12.875 l 0,12.852 85.09,0 0,-77.09 c 0,-3.526 -0.436,-6.993 -1.283,-10.364 l 36.536,-36.536 z m -306.761,21.187 -13.228,-13.227 29.98,0 c -6.645,2.932 -12.404,7.513 -16.752,13.227 z m -13.271,-29.227 12.377,-12.378 c 5.965,3.847 12.909,5.917 20.177,5.917 20.586,0 37.335,-16.749 37.335,-37.335 0,-7.269 -2.071,-14.215 -5.919,-20.181 l 4.346,-4.347 c 1.109,-1.109 2.256,-2.19 3.42,-3.258 13.624,27.392 41.67,45.135 72.952,45.135 31.279,0 59.321,-17.742 72.944,-45.134 1.163,1.067 2.309,2.147 3.416,3.254 l 4.738,4.738 c -3.689,5.883 -5.674,12.694 -5.674,19.792 0,20.586 16.751,37.335 37.342,37.335 7.088,0 13.894,-1.985 19.78,-5.673 l 12.133,12.134 -289.367,0 z m 53.889,-43.796 c 0,11.764 -9.571,21.335 -21.335,21.335 -2.932,0 -5.773,-0.587 -8.39,-1.706 l 28.02,-28.02 c 1.119,2.617 1.705,5.459 1.705,8.391 z m 32.655,-39.194 c 0.249,-0.16 0.496,-0.324 0.746,-0.482 34.914,-21.91 79.872,-21.911 114.771,-0.013 0.264,0.166 0.525,0.339 0.787,0.508 0.633,0.405 1.259,0.825 1.886,1.245 -10.33,23.721 -33.773,39.285 -60.045,39.285 -26.277,0 -49.722,-15.563 -60.052,-39.285 0.633,-0.424 1.266,-0.848 1.907,-1.258 z m 178.842,59.006 c -2.494,0.999 -5.177,1.522 -7.932,1.522 -11.768,0 -21.342,-9.571 -21.342,-21.335 0,-2.761 0.523,-5.448 1.521,-7.942 l 7.33,7.33 20.423,20.425 z m 24.06,39.984 -13.272,13.272 c -1.175,-1.549 -2.462,-3.024 -3.856,-4.419 -3.784,-3.783 -8.159,-6.755 -12.911,-8.853 l 30.039,0 z M 118.378,299.92 c -8.525,8.524 -19.86,13.219 -31.917,13.219 -12.057,0 -23.388,-4.694 -31.91,-13.22 L 22.63,268.007 54.553,236.092 c 8.52,-8.523 19.851,-13.218 31.908,-13.218 11.165,0 21.706,4.033 29.975,11.398 l 33.795,33.795 -31.853,31.853 z m 100.983,40.915 -53.09,0 0,-61.09 c 0,-14.637 11.908,-26.545 26.545,-26.545 14.637,0 26.545,11.908 26.545,26.545 l 0,61.09 z m 16,-15.039 0,-46.052 c 0,-17.372 -10.471,-32.337 -25.429,-38.938 l 160.856,0 c -14.954,6.603 -25.421,21.568 -25.421,38.94 l 0,46.051 c -33.855,20.085 -76.152,20.081 -110.006,-0.001 z m 179.095,15.04 -53.09,0 0,-61.09 c 0,-14.64 11.906,-26.55 26.54,-26.55 7.091,0 13.758,2.762 18.772,7.776 2.617,2.618 4.62,5.677 5.956,9.095 l 0.005,0.011 -0.001,0 c 1.206,3.073 1.817,6.326 1.817,9.667 l 0,61.091 z"
           inkscape:connector-curvature="0" />
        <path
           id="path4210"
           d="m 80.410123,231.333 c -9.307686,0 -16.880372,7.0255 -16.880372,15.66062 0,8.63513 7.572686,15.66062 16.880372,15.66062 9.307687,0 16.880373,-7.02549 16.880373,-15.66062 0,-8.63512 -7.572093,-15.66062 -16.880373,-15.66062 z m 0,22.51888 c -4.076596,0 -7.393019,-3.07678 -7.393019,-6.85881 0,-3.78203 3.316423,-6.85881 7.393019,-6.85881 4.076597,0 7.39302,3.07678 7.39302,6.85881 0,3.78203 -3.316423,6.85881 -7.39302,6.85881 z"
           inkscape:connector-curvature="0" />
      </g>
      <g
         id="g4212" />
      <g
         id="g4214" />
      <g
         id="g4216" />
      <g
         id="g4218" />
      <g
         id="g4220" />
      <g
         id="g4222" />
      <g
         id="g4224" />
      <g
         id="g4226" />
      <g
         id="g4228" />
      <g
         id="g4230" />
      <g
         id="g4232" />
      <g
         id="g4234" />
      <g
         id="g4236" />
      <g
         id="g4238" />
      <g
         id="g4240" />
    </g>
  </g>
</svg>
