<?xml version="1.0" encoding="UTF-8" standalone="no"?>
<!-- Created with Inkscape (http://www.inkscape.org/) -->

<svg
   xmlns:dc="http://purl.org/dc/elements/1.1/"
   xmlns:cc="http://creativecommons.org/ns#"
   xmlns:rdf="http://www.w3.org/1999/02/22-rdf-syntax-ns#"
   xmlns:svg="http://www.w3.org/2000/svg"
   xmlns="http://www.w3.org/2000/svg"
   xmlns:xlink="http://www.w3.org/1999/xlink"
   xmlns:sodipodi="http://sodipodi.sourceforge.net/DTD/sodipodi-0.dtd"
   xmlns:inkscape="http://www.inkscape.org/namespaces/inkscape"
   width="284"
   height="624"
   viewBox="0 0 284 624.00001"
   id="svg4256"
   version="1.1"
   inkscape:version="0.91 r"
   inkscape:export-filename="/home/marcin/MultiDevice_Share/control_your_woman/media/graphics/button_center_right.png"
   inkscape:export-xdpi="90"
   inkscape:export-ydpi="90"
   sodipodi:docname="button_center_right.svg">
  <defs
     id="defs4258">
    <linearGradient
       id="linearGradient4163"
       inkscape:collect="always">
      <stop
         id="stop4165"
         offset="0"
         style="stop-color:#cfcfcf;stop-opacity:1" />
      <stop
         id="stop4167"
         offset="1"
         style="stop-color:#000000;stop-opacity:1" />
    </linearGradient>
    <linearGradient
       gradientTransform="translate(176.62595,575.14144)"
       inkscape:collect="always"
       xlink:href="#linearGradient4163"
       id="linearGradient4192-4"
       x1="-192.79239"
       y1="-33.575603"
       x2="39.290802"
       y2="325.78214"
       gradientUnits="userSpaceOnUse" />
    <filter
       inkscape:collect="always"
       style="color-interpolation-filters:sRGB"
       id="filter5840-0"
       x="-0.0079906369"
       width="1.0159813"
       y="-0.0034302941"
       height="1.0068606">
      <feGaussianBlur
         inkscape:collect="always"
         stdDeviation="0.28947719"
         id="feGaussianBlur5842-9" />
    </filter>
    <mask
       maskUnits="userSpaceOnUse"
       id="mask4358">
      <ellipse
         style="opacity:0.9;fill:#ffd8c3;fill-opacity:1;stroke:#ccc6c6;stroke-width:4;stroke-miterlimit:4;stroke-dasharray:none;stroke-dashoffset:0;stroke-opacity:1"
         id="ellipse4360"
         cx="-286.25"
         cy="594.14789"
         rx="23.035715"
         ry="22.142857" />
    </mask>
    <mask
       maskUnits="userSpaceOnUse"
       id="mask4358-8">
      <ellipse
         style="opacity:0.9;fill:#ffd8c3;fill-opacity:1;stroke:#ccc6c6;stroke-width:4;stroke-miterlimit:4;stroke-dasharray:none;stroke-dashoffset:0;stroke-opacity:1"
         id="ellipse4360-0"
         cx="-286.25"
         cy="594.14789"
         rx="23.035715"
         ry="22.142857" />
    </mask>
    <mask
       maskUnits="userSpaceOnUse"
       id="mask4358-1">
      <ellipse
         style="opacity:0.9;fill:#ffd8c3;fill-opacity:1;stroke:#ccc6c6;stroke-width:4;stroke-miterlimit:4;stroke-dasharray:none;stroke-dashoffset:0;stroke-opacity:1"
         id="ellipse4360-7"
         cx="-286.25"
         cy="594.14789"
         rx="23.035715"
         ry="22.142857" />
    </mask>
    <mask
       maskUnits="userSpaceOnUse"
       id="mask4358-82">
      <ellipse
         style="opacity:0.9;fill:#ffd8c3;fill-opacity:1;stroke:#ccc6c6;stroke-width:4;stroke-miterlimit:4;stroke-dasharray:none;stroke-dashoffset:0;stroke-opacity:1"
         id="ellipse4360-6"
         cx="-286.25"
         cy="594.14789"
         rx="23.035715"
         ry="22.142857" />
    </mask>
    <mask
       maskUnits="userSpaceOnUse"
       id="mask4358-1-1">
      <ellipse
         style="opacity:0.9;fill:#ffd8c3;fill-opacity:1;stroke:#ccc6c6;stroke-width:4;stroke-miterlimit:4;stroke-dasharray:none;stroke-dashoffset:0;stroke-opacity:1"
         id="ellipse4360-7-2"
         cx="-286.25"
         cy="594.14789"
         rx="23.035715"
         ry="22.142857" />
    </mask>
    <filter
       inkscape:collect="always"
       style="color-interpolation-filters:sRGB"
       id="filter4212"
       x="-0.050000001"
       width="1.17"
       y="-0.04253849"
       height="1.085077">
      <feGaussianBlur
         inkscape:collect="always"
         stdDeviation="1.6296074"
         id="feGaussianBlur4214" />
    </filter>
    <filter
       inkscape:collect="always"
       style="color-interpolation-filters:sRGB"
       id="filter4249"
       x="-0.0096"
       width="1.0192"
       y="-0.0096"
       height="1.0192">
      <feGaussianBlur
         inkscape:collect="always"
         stdDeviation="2.05328"
         id="feGaussianBlur4251" />
    </filter>
  </defs>
  <sodipodi:namedview
     id="base"
     pagecolor="#ffffff"
     bordercolor="#666666"
     borderopacity="1.0"
     inkscape:pageopacity="0.0"
     inkscape:pageshadow="2"
     inkscape:zoom="0.7"
     inkscape:cx="-240.79015"
     inkscape:cy="490.77596"
     inkscape:document-units="px"
     inkscape:current-layer="layer1"
     showgrid="false"
     showguides="false"
     units="px"
     inkscape:window-width="1680"
     inkscape:window-height="1027"
     inkscape:window-x="0"
     inkscape:window-y="0"
     inkscape:window-maximized="1" />
  <metadata
     id="metadata4261">
    <rdf:RDF>
      <cc:Work
         rdf:about="">
        <dc:format>image/svg+xml</dc:format>
        <dc:type
           rdf:resource="http://purl.org/dc/dcmitype/StillImage" />
        <dc:title />
      </cc:Work>
    </rdf:RDF>
  </metadata>
  <g
     inkscape:label="Layer 1"
     inkscape:groupmode="layer"
     id="layer1"
     style="opacity:1"
     transform="translate(0,-428.36216)">
    <path
       inkscape:connector-curvature="0"
       style="opacity:1;fill:#000000;fill-opacity:1;stroke:none;stroke-width:1.21500003;stroke-miterlimit:3.9000001;stroke-dasharray:none;stroke-dashoffset:0;stroke-opacity:1;filter:url(#filter4212)"
       d="m 302.44782,394.41032 c -2.19186,0 -3.60691,2.44676 -5.2014,4.38092 -1.59448,1.93415 -3.13542,3.89644 -4.62365,5.88637 -1.48827,1.98993 -2.92363,4.00637 -4.30566,6.04821 -1.38202,2.04186 -2.71179,4.10885 -3.98759,6.19877 -1.27578,2.08994 -2.49814,4.20385 -3.66769,6.33802 -1.16958,2.13417 -2.28636,4.28955 -3.34967,6.4641 -1.06331,2.17457 -2.07267,4.36777 -3.02976,6.57889 -0.95707,2.21111 -1.86089,4.43859 -2.71172,6.6824 -0.85084,2.24382 -1.64908,4.5038 -2.39369,6.77648 -0.74461,2.27268 -1.43542,4.55971 -2.07379,6.85741 -0.63835,2.2977 -1.22361,4.60628 -1.75574,6.92515 -0.53212,2.31889 -1.01186,4.64728 -1.43772,6.98349 -0.42588,2.33621 -0.7982,4.68082 -1.11782,7.03053 -0.31963,2.34969 -0.5864,4.70505 -0.79977,7.0644 -0.21338,2.35935 -0.37461,4.72184 -0.48175,7.08701 -0.10108,2.23166 -0.15159,4.46581 -0.15808,6.69933 -0.002,0 -0.002,0 -0.004,0 2e-5,0.0665 0.002,0.13299 0.002,0.19947 -9e-5,0.0671 -0.002,0.13424 -0.002,0.20136 0.002,0 0.002,0 0.004,0 0.007,2.23351 0.0571,4.46767 0.15808,6.69933 0.10714,2.36516 0.26837,4.72764 0.48175,7.08698 0.21337,2.35935 0.48014,4.71472 0.79977,7.06441 0.31962,2.3497 0.69194,4.69432 1.11782,7.03054 0.42586,2.33619 0.9056,4.6646 1.43772,6.98348 0.53213,2.31887 1.11739,4.62745 1.75574,6.92515 0.63835,2.29771 1.32917,4.58473 2.07379,6.85741 0.74461,2.27268 1.54285,4.53078 2.39369,6.77461 0.85083,2.24381 1.75465,4.47316 2.71172,6.68427 0.95708,2.21112 1.96644,4.40432 3.02976,6.57889 1.06333,2.17456 2.18011,4.32993 3.34966,6.46411 1.16956,2.13416 2.39191,4.24619 3.66769,6.33613 1.27578,2.08992 2.60558,4.1569 3.9876,6.19875 1.38203,2.04185 2.81737,4.06017 4.30565,6.05011 1.48823,1.98993 3.02918,3.95221 4.62366,5.88637 1.5945,1.93417 3.00954,4.38092 5.2014,4.38092 0,0 0.87375,0.20077 2.87167,-1.79716 l 3.13137,-3.13137 3.1295,-3.12949 3.13137,-3.13137 3.13138,-3.13137 3.12949,-3.1295 3.13137,-3.13137 3.1295,-3.12949 3.13137,-3.13138 3.13137,-3.13137 3.12948,-3.12948 3.13137,-3.13137 3.1295,-3.1295 3.13137,-3.13137 c 0,0 2.25264,-1.94572 3.13137,-3.13137 0.70432,-0.9503 1.66726,-1.94666 1.66919,-3.1295 0.004,-2.33777 -1.80541,-4.07973 -3.28004,-6.19875 -1.47462,-2.11904 -2.84215,-4.28937 -4.10616,-6.50174 -1.26399,-2.21237 -2.42426,-4.46821 -3.47763,-6.75955 -1.05336,-2.29135 -2.00072,-4.61811 -2.84345,-6.97408 -0.84274,-2.35596 -1.58092,-4.74097 -2.21304,-7.14721 -0.6321,-2.40623 -1.15737,-4.83302 -1.57886,-7.27516 -0.42147,-2.44215 -0.7376,-4.89993 -0.94843,-7.36362 -0.20578,-2.40427 -0.30911,-4.81497 -0.31427,-7.22625 0.005,-2.41128 0.10849,-4.82199 0.31427,-7.22624 0.21083,-2.46371 0.52696,-4.91961 0.94843,-7.36176 0.42149,-2.44214 0.94676,-4.87081 1.57886,-7.27704 0.63213,-2.40624 1.37029,-4.79125 2.21304,-7.14721 0.84273,-2.35597 1.79008,-4.68273 2.84345,-6.97408 1.05337,-2.29134 2.21365,-4.54719 3.47763,-6.75955 1.26401,-2.21237 2.63154,-4.38082 4.10616,-6.49986 1.47463,-2.11902 3.28421,-3.86098 3.28004,-6.19875 -0.002,-1.18285 -0.96487,-2.18108 -1.66919,-3.13138 -0.87873,-1.18565 -3.13137,-3.12949 -3.13137,-3.12949 l -3.13137,-3.13138 -3.1295,-3.13137 -3.13137,-3.12948 -3.12948,-3.13138 -3.13137,-3.12948 -3.13137,-3.13138 -3.1295,-3.13137 -3.13137,-3.12949 -3.12949,-3.13138 -3.13138,-3.12949 -3.13137,-3.13137 -3.1295,-3.13138 -3.13137,-3.12949 c -1.99792,-1.99793 -2.87167,-1.79715 -2.87167,-1.79715 z"
       id="path5643-5-8-9"
       transform="matrix(-2.9489195,0,0,-2.8696508,1044.0439,2171.7252)" />
    <path
       style="display:inline;opacity:1;fill:url(#linearGradient4192-4);fill-opacity:1;stroke:#7c7c7c;stroke-width:0.70570594;stroke-miterlimit:3.9000001;stroke-dasharray:none;stroke-dashoffset:0;stroke-opacity:1;filter:url(#filter5840-0)"
       d="m 44.298585,559.73353 c -2.13,0 -3.5051,2.37768 -5.05458,4.25725 -1.54949,1.87957 -3.04692,3.78646 -4.49317,5.72024 -1.44625,1.93376 -2.84109,3.89327 -4.1841,5.87748 -1.34302,1.98423 -2.63527,3.99288 -3.87506,6.02381 -1.23977,2.03094 -2.42763,4.08518 -3.56416,6.15912 -1.13655,2.07392 -2.22182,4.16846 -3.25512,6.28165 -1.0333,2.11318 -2.01417,4.24449 -2.94423,6.39319 -0.93007,2.14869 -1.80837,4.3133 -2.63519,6.49378 -0.82683,2.18048 -1.60255,4.37667 -2.32612,6.5852 -0.7236,2.20854 -1.39491,4.43101 -2.0152596,6.66386 -0.62034,2.23284 -1.18909,4.47626 -1.70618,6.72968 -0.51711,2.25343 -0.9833,4.51611 -1.39714,6.78637 -0.41387,2.27028 -0.77567,4.54871 -1.08627,6.83208 -0.31061,2.28338 -0.56984,4.57226 -0.7772,6.86501 -0.20735,2.29276 -0.36404,4.58855 -0.46815,6.88695 -0.0982,2.16868 -0.14731,4.33977 -0.15362,6.51025 -0.002,0 -0.002,0 -0.004,0 2e-5,0.0646 0.002,0.12924 0.002,0.19384 -1.1e-4,0.0652 -0.002,0.13045 -0.002,0.19566 0.002,0 0.002,0 0.004,0 0.006,2.17048 0.0554,4.34157 0.15362,6.51025 0.10411,2.2984 0.2608,4.59419 0.46815,6.88695 0.20736,2.29275 0.46659,4.58163 0.7772,6.865 0.3106,2.28338 0.6724,4.56181 1.08627,6.83209 0.41384,2.27026 0.88003,4.53294 1.39714,6.78637 0.51709,2.25342 1.08584,4.49683 1.70618,6.72968 0.6203296,2.23286 1.2916596,4.45532 2.0152596,6.66385 0.72357,2.20853 1.49929,4.4029 2.32612,6.58338 0.82681,2.18049 1.70512,4.34691 2.63519,6.49561 0.93006,2.1487 1.91094,4.28001 2.94423,6.39319 1.03331,2.11319 2.11858,4.20772 3.25512,6.28165 1.13654,2.07394 2.32439,4.12635 3.56416,6.15729 1.23978,2.03094 2.53204,4.03958 3.87506,6.0238 1.343,1.98421 2.73785,3.94556 4.1841,5.87932 1.44624,1.93378 2.94368,3.84066 4.49317,5.72023 1.54949,1.87958 2.92457,4.25726 5.05458,4.25726 0,0 0.84908,0.1951 2.79062,-1.74643 l 3.04298,-3.04299 3.04116,-3.04114 3.04298,-3.04299 3.04299,-3.04299 3.04116,-3.04116 3.04298,-3.04299 3.04118,-3.04115 3.04298,-3.04299 3.04299,-3.04299 3.04115,-3.04115 3.04298,-3.04299 3.04117,-3.04116 3.04298,-3.04298 c 0,0 2.18905,-1.89081 3.04299,-3.04299 0.68442,-0.92348 1.62019,-1.89171 1.62207,-3.04116 0.004,-2.27179 -1.75446,-3.96458 -3.18746,-6.0238 -1.43299,-2.05922 -2.76192,-4.16829 -3.99025,-6.31822 -1.22833,-2.14992 -2.35584,-4.34207 -3.37948,-6.56874 -1.02363,-2.22667 -1.94424,-4.48776 -2.76319,-6.77723 -0.81895,-2.28947 -1.53631,-4.60716 -2.15057,-6.94547 -0.61427,-2.33831 -1.12472,-4.69662 -1.5343,-7.06982 -0.40958,-2.37321 -0.71677,-4.76162 -0.92167,-7.15578 -0.19995,-2.33641 -0.30037,-4.67905 -0.30539,-7.02227 0.005,-2.34322 0.10544,-4.68588 0.30539,-7.02228 0.2049,-2.39415 0.51209,-4.78074 0.92167,-7.15394 0.40958,-2.37322 0.92003,-4.73334 1.5343,-7.07166 0.61427,-2.33831 1.33161,-4.656 2.15057,-6.94547 0.81895,-2.28946 1.73955,-4.55055 2.76319,-6.77723 1.02364,-2.22666 2.15116,-4.41883 3.37948,-6.56875 1.22833,-2.14992 2.55726,-4.25717 3.99025,-6.31639 1.433,-2.05921 3.19151,-3.752 3.18746,-6.02379 -0.002,-1.14945 -0.93765,-2.11951 -1.62207,-3.04299 -0.85394,-1.15218 -3.04299,-3.04116 -3.04299,-3.04116 l -3.04298,-3.04298 -3.04117,-3.04299 -3.04298,-3.04116 -3.04115,-3.04299 -3.04299,-3.04115 -3.04298,-3.04298 -3.04118,-3.04299 -3.04298,-3.04116 -3.04116,-3.04299 -3.04299,-3.04116 -3.04298,-3.04298 -3.04116,-3.04299 -3.04298,-3.04116 c -1.94154,-1.94154 -2.79062,-1.74642 -2.79062,-1.74642 z"
       id="path5643-3-3"
       inkscape:connector-curvature="0"
       transform="matrix(-2.8340415,0,0,-2.8340415,277.5565,2613.6471)" />
    <g
       id="g4224"
       transform="translate(-376.00685,482.40629)" />
    <g
       id="g4226"
       transform="translate(-376.00685,482.40629)" />
    <g
       id="g4228"
       transform="translate(-376.00685,482.40629)" />
    <g
       id="g4230"
       transform="translate(-376.00685,482.40629)" />
    <g
       id="g4232"
       transform="translate(-376.00685,482.40629)" />
    <g
       id="g4234"
       transform="translate(-376.00685,482.40629)" />
    <g
       id="g4236"
       transform="translate(-376.00685,482.40629)" />
    <g
       id="g4238"
       transform="translate(-376.00685,482.40629)" />
    <g
       id="g4240"
       transform="translate(-376.00685,482.40629)" />
    <g
       id="g4242"
       transform="translate(-376.00685,482.40629)" />
    <g
       id="g4244"
       transform="translate(-376.00685,482.40629)" />
    <g
       id="g4246"
       transform="translate(-376.00685,482.40629)" />
    <g
       id="g4248"
       transform="translate(-376.00685,482.40629)" />
    <g
       id="g4250"
       transform="translate(-376.00685,482.40629)" />
    <g
       id="g4252"
       transform="translate(-376.00685,482.40629)" />
    <g
       id="g4223"
       transform="matrix(0.34540007,0,0,0.34540007,81.560323,653.08987)"
       style="opacity:0.8;filter:url(#filter4249)">
      <g
         id="g4177"
         style="">
        <g
           id="g4179"
           style="">
          <g
             id="g4181"
             style="">
            <path
               id="path4183"
               d="m 96.247,128.33 -96.247,0 0,256.66 96.247,0 85.553,128.33 74.859,0 L 256.659,0 181.8,0 96.247,128.33 Z m 117.636,-85.553 0,427.767 -8.555,0 -85.553,-128.33 -76.998,0 0,-171.107 76.998,0 85.553,-128.33 c 0,0 8.555,0 8.555,0 z"
               inkscape:connector-curvature="0"
               style="" />
            <polygon
               id="polygon4185"
               points="513.32,235.272 427.767,235.272 427.767,149.718 384.99,149.718 384.99,235.272 299.437,235.272 299.437,278.048 384.99,278.048 384.99,363.602 427.767,363.602 427.767,278.048 513.32,278.048 "
               style="" />
          </g>
        </g>
      </g>
      <g
         id="g4187"
         style="" />
      <g
         id="g4189"
         style="" />
      <g
         id="g4191"
         style="" />
      <g
         id="g4193"
         style="" />
      <g
         id="g4195"
         style="" />
      <g
         id="g4197"
         style="" />
      <g
         id="g4199"
         style="" />
      <g
         id="g4201"
         style="" />
      <g
         id="g4203"
         style="" />
      <g
         id="g4205"
         style="" />
      <g
         id="g4207"
         style="" />
      <g
         id="g4209"
         style="" />
      <g
         id="g4211"
         style="" />
      <g
         id="g4213"
         style="" />
      <g
         id="g4215"
         style="" />
    </g>
  </g>
</svg>
