<?xml version="1.0" encoding="UTF-8" standalone="no"?>
<!-- Created with Inkscape (http://www.inkscape.org/) -->

<svg
   xmlns:dc="http://purl.org/dc/elements/1.1/"
   xmlns:cc="http://creativecommons.org/ns#"
   xmlns:rdf="http://www.w3.org/1999/02/22-rdf-syntax-ns#"
   xmlns:svg="http://www.w3.org/2000/svg"
   xmlns="http://www.w3.org/2000/svg"
   xmlns:xlink="http://www.w3.org/1999/xlink"
   xmlns:sodipodi="http://sodipodi.sourceforge.net/DTD/sodipodi-0.dtd"
   xmlns:inkscape="http://www.inkscape.org/namespaces/inkscape"
   width="624"
   height="284"
   viewBox="0 0 624 284"
   id="svg4256"
   version="1.1"
   inkscape:version="0.91 r"
   inkscape:export-filename="/home/marcin/MultiDevice_Share/control_your_woman/media/graphics/button_center_up.png"
   inkscape:export-xdpi="90"
   inkscape:export-ydpi="90"
   sodipodi:docname="button_center_up.svg">
  <defs
     id="defs4258">
    <marker
       inkscape:stockid="Arrow1Lstart"
       orient="auto"
       refY="0.0"
       refX="0.0"
       id="marker4440"
       style="overflow:visible"
       inkscape:isstock="true">
      <path
         id="path4442"
         d="M 0.0,0.0 L 5.0,-5.0 L -12.5,0.0 L 5.0,5.0 L 0.0,0.0 z "
         style="fill-rule:evenodd;stroke:none;stroke-width:1pt;stroke-opacity:1;fill:#000000;fill-opacity:1"
         transform="scale(0.8) translate(12.5,0)" />
    </marker>
    <marker
       inkscape:stockid="Arrow1Lstart"
       orient="auto"
       refY="0.0"
       refX="0.0"
       id="marker4418"
       style="overflow:visible"
       inkscape:isstock="true">
      <path
         id="path4420"
         d="M 0.0,0.0 L 5.0,-5.0 L -12.5,0.0 L 5.0,5.0 L 0.0,0.0 z "
         style="fill-rule:evenodd;stroke:none;stroke-width:1pt;stroke-opacity:1;fill:#000000;fill-opacity:1"
         transform="scale(0.8) translate(12.5,0)" />
    </marker>
    <marker
       inkscape:stockid="Arrow1Lstart"
       orient="auto"
       refY="0.0"
       refX="0.0"
       id="Arrow1Lstart"
       style="overflow:visible"
       inkscape:isstock="true">
      <path
         id="path4148"
         d="M 0.0,0.0 L 5.0,-5.0 L -12.5,0.0 L 5.0,5.0 L 0.0,0.0 z "
         style="fill-rule:evenodd;stroke:none;stroke-width:1pt;stroke-opacity:1;fill:#000000;fill-opacity:1"
         transform="scale(0.8) translate(12.5,0)" />
    </marker>
    <linearGradient
       id="linearGradient4163"
       inkscape:collect="always">
      <stop
         id="stop4165"
         offset="0"
         style="stop-color:#cfcfcf;stop-opacity:1" />
      <stop
         id="stop4167"
         offset="1"
         style="stop-color:#000000;stop-opacity:1" />
    </linearGradient>
    <linearGradient
       gradientTransform="translate(176.62595,575.14144)"
       inkscape:collect="always"
       xlink:href="#linearGradient4163"
       id="linearGradient4192-4"
       x1="-63.955654"
       y1="114.0761"
       x2="-304.48486"
       y2="98.070419"
       gradientUnits="userSpaceOnUse" />
    <filter
       inkscape:collect="always"
       style="color-interpolation-filters:sRGB"
       id="filter5840-0"
       x="-0.0079906369"
       width="1.0159813"
       y="-0.0034302941"
       height="1.0068606">
      <feGaussianBlur
         inkscape:collect="always"
         stdDeviation="0.28947719"
         id="feGaussianBlur5842-9" />
    </filter>
    <filter
       inkscape:collect="always"
       style="color-interpolation-filters:sRGB"
       id="filter4212"
       x="-0.050000001"
       width="1.17"
       y="-0.04253849"
       height="1.085077">
      <feGaussianBlur
         inkscape:collect="always"
         stdDeviation="1.6296074"
         id="feGaussianBlur4214" />
    </filter>
    <filter
       inkscape:collect="always"
       style="color-interpolation-filters:sRGB"
       id="filter4635"
       x="-0.070000000000000007"
       width="1.1500000000000001"
       y="-0.089999999999999997"
       height="1.2500000000000002">
      <feGaussianBlur
         inkscape:collect="always"
         stdDeviation="0.60058051"
         id="feGaussianBlur4637" />
    </filter>
  </defs>
  <sodipodi:namedview
     id="base"
     pagecolor="#ffffff"
     bordercolor="#666666"
     borderopacity="1.0"
     inkscape:pageopacity="0.0"
     inkscape:pageshadow="2"
     inkscape:zoom="0.98994949"
     inkscape:cx="227.88871"
     inkscape:cy="270.05686"
     inkscape:document-units="px"
     inkscape:current-layer="layer1"
     showgrid="false"
     showguides="false"
     units="px"
     inkscape:window-width="1680"
     inkscape:window-height="1027"
     inkscape:window-x="0"
     inkscape:window-y="0"
     inkscape:window-maximized="1" />
  <metadata
     id="metadata4261">
    <rdf:RDF>
      <cc:Work
         rdf:about="">
        <dc:format>image/svg+xml</dc:format>
        <dc:type
           rdf:resource="http://purl.org/dc/dcmitype/StillImage" />
        <dc:title />
      </cc:Work>
    </rdf:RDF>
  </metadata>
  <g
     inkscape:label="Layer 1"
     inkscape:groupmode="layer"
     id="layer1"
     style="opacity:1"
     transform="translate(0,-768.36216)">
    <path
       inkscape:connector-curvature="0"
       style="opacity:1;fill:#000000;fill-opacity:1;stroke:none;stroke-width:1.21500003;stroke-miterlimit:3.9000001;stroke-dasharray:none;stroke-dashoffset:0;stroke-opacity:1;filter:url(#filter4212)"
       d="m 302.44782,394.41032 c -2.19186,0 -3.60691,2.44676 -5.2014,4.38092 -1.59448,1.93415 -3.13542,3.89644 -4.62365,5.88637 -1.48827,1.98993 -2.92363,4.00637 -4.30566,6.04821 -1.38202,2.04186 -2.71179,4.10885 -3.98759,6.19877 -1.27578,2.08994 -2.49814,4.20385 -3.66769,6.33802 -1.16958,2.13417 -2.28636,4.28955 -3.34967,6.4641 -1.06331,2.17457 -2.07267,4.36777 -3.02976,6.57889 -0.95707,2.21111 -1.86089,4.43859 -2.71172,6.6824 -0.85084,2.24382 -1.64908,4.5038 -2.39369,6.77648 -0.74461,2.27268 -1.43542,4.55971 -2.07379,6.85741 -0.63835,2.2977 -1.22361,4.60628 -1.75574,6.92515 -0.53212,2.31889 -1.01186,4.64728 -1.43772,6.98349 -0.42588,2.33621 -0.7982,4.68082 -1.11782,7.03053 -0.31963,2.34969 -0.5864,4.70505 -0.79977,7.0644 -0.21338,2.35935 -0.37461,4.72184 -0.48175,7.08701 -0.10108,2.23166 -0.15159,4.46581 -0.15808,6.69933 -0.002,0 -0.002,0 -0.004,0 2e-5,0.0665 0.002,0.13299 0.002,0.19947 -9e-5,0.0671 -0.002,0.13424 -0.002,0.20136 0.002,0 0.002,0 0.004,0 0.007,2.23351 0.0571,4.46767 0.15808,6.69933 0.10714,2.36516 0.26837,4.72764 0.48175,7.08698 0.21337,2.35935 0.48014,4.71472 0.79977,7.06441 0.31962,2.3497 0.69194,4.69432 1.11782,7.03054 0.42586,2.33619 0.9056,4.6646 1.43772,6.98348 0.53213,2.31887 1.11739,4.62745 1.75574,6.92515 0.63835,2.29771 1.32917,4.58473 2.07379,6.85741 0.74461,2.27268 1.54285,4.53078 2.39369,6.77461 0.85083,2.24381 1.75465,4.47316 2.71172,6.68427 0.95708,2.21112 1.96644,4.40432 3.02976,6.57889 1.06333,2.17456 2.18011,4.32993 3.34966,6.46411 1.16956,2.13416 2.39191,4.24619 3.66769,6.33613 1.27578,2.08992 2.60558,4.1569 3.9876,6.19875 1.38203,2.04185 2.81737,4.06017 4.30565,6.05011 1.48823,1.98993 3.02918,3.95221 4.62366,5.88637 1.5945,1.93417 3.00954,4.38092 5.2014,4.38092 0,0 0.87375,0.20077 2.87167,-1.79716 l 3.13137,-3.13137 3.1295,-3.12949 3.13137,-3.13137 3.13138,-3.13137 3.12949,-3.1295 3.13137,-3.13137 3.1295,-3.12949 3.13137,-3.13138 3.13137,-3.13137 3.12948,-3.12948 3.13137,-3.13137 3.1295,-3.1295 3.13137,-3.13137 c 0,0 2.25264,-1.94572 3.13137,-3.13137 0.70432,-0.9503 1.66726,-1.94666 1.66919,-3.1295 0.004,-2.33777 -1.80541,-4.07973 -3.28004,-6.19875 -1.47462,-2.11904 -2.84215,-4.28937 -4.10616,-6.50174 -1.26399,-2.21237 -2.42426,-4.46821 -3.47763,-6.75955 -1.05336,-2.29135 -2.00072,-4.61811 -2.84345,-6.97408 -0.84274,-2.35596 -1.58092,-4.74097 -2.21304,-7.14721 -0.6321,-2.40623 -1.15737,-4.83302 -1.57886,-7.27516 -0.42147,-2.44215 -0.7376,-4.89993 -0.94843,-7.36362 -0.20578,-2.40427 -0.30911,-4.81497 -0.31427,-7.22625 0.005,-2.41128 0.10849,-4.82199 0.31427,-7.22624 0.21083,-2.46371 0.52696,-4.91961 0.94843,-7.36176 0.42149,-2.44214 0.94676,-4.87081 1.57886,-7.27704 0.63213,-2.40624 1.37029,-4.79125 2.21304,-7.14721 0.84273,-2.35597 1.79008,-4.68273 2.84345,-6.97408 1.05337,-2.29134 2.21365,-4.54719 3.47763,-6.75955 1.26401,-2.21237 2.63154,-4.38082 4.10616,-6.49986 1.47463,-2.11902 3.28421,-3.86098 3.28004,-6.19875 -0.002,-1.18285 -0.96487,-2.18108 -1.66919,-3.13138 -0.87873,-1.18565 -3.13137,-3.12949 -3.13137,-3.12949 l -3.13137,-3.13138 -3.1295,-3.13137 -3.13137,-3.12948 -3.12948,-3.13138 -3.13137,-3.12948 -3.13137,-3.13138 -3.1295,-3.13137 -3.13137,-3.12949 -3.12949,-3.13138 -3.13138,-3.12949 -3.13137,-3.13137 -3.1295,-3.13138 -3.13137,-3.12949 c -1.99792,-1.99793 -2.87167,-1.79715 -2.87167,-1.79715 z"
       id="path5643-5-8"
       transform="matrix(0,2.9489195,-2.8696508,0,1737.9856,6.1240976)" />
    <path
       style="display:inline;opacity:1;fill:url(#linearGradient4192-4);fill-opacity:1;stroke:#7c7c7c;stroke-width:0.70570594;stroke-miterlimit:3.9000001;stroke-dasharray:none;stroke-dashoffset:0;stroke-opacity:1;filter:url(#filter5840-0)"
       d="m 44.298585,559.73353 c -2.13,0 -3.5051,2.37768 -5.05458,4.25725 -1.54949,1.87957 -3.04692,3.78646 -4.49317,5.72024 -1.44625,1.93376 -2.84109,3.89327 -4.1841,5.87748 -1.34302,1.98423 -2.63527,3.99288 -3.87506,6.02381 -1.23977,2.03094 -2.42763,4.08518 -3.56416,6.15912 -1.13655,2.07392 -2.22182,4.16846 -3.25512,6.28165 -1.0333,2.11318 -2.01417,4.24449 -2.94423,6.39319 -0.93007,2.14869 -1.80837,4.3133 -2.63519,6.49378 -0.82683,2.18048 -1.60255,4.37667 -2.32612,6.5852 -0.7236,2.20854 -1.39491,4.43101 -2.0152596,6.66386 -0.62034,2.23284 -1.18909,4.47626 -1.70618,6.72968 -0.51711,2.25343 -0.9833,4.51611 -1.39714,6.78637 -0.41387,2.27028 -0.77567,4.54871 -1.08627,6.83208 -0.31061,2.28338 -0.56984,4.57226 -0.7772,6.86501 -0.20735,2.29276 -0.36404,4.58855 -0.46815,6.88695 -0.0982,2.16868 -0.14731,4.33977 -0.15362,6.51025 -0.002,0 -0.002,0 -0.004,0 2e-5,0.0646 0.002,0.12924 0.002,0.19384 -1.1e-4,0.0652 -0.002,0.13045 -0.002,0.19566 0.002,0 0.002,0 0.004,0 0.006,2.17048 0.0554,4.34157 0.15362,6.51025 0.10411,2.2984 0.2608,4.59419 0.46815,6.88695 0.20736,2.29275 0.46659,4.58163 0.7772,6.865 0.3106,2.28338 0.6724,4.56181 1.08627,6.83209 0.41384,2.27026 0.88003,4.53294 1.39714,6.78637 0.51709,2.25342 1.08584,4.49683 1.70618,6.72968 0.6203296,2.23286 1.2916596,4.45532 2.0152596,6.66385 0.72357,2.20853 1.49929,4.4029 2.32612,6.58338 0.82681,2.18049 1.70512,4.34691 2.63519,6.49561 0.93006,2.1487 1.91094,4.28001 2.94423,6.39319 1.03331,2.11319 2.11858,4.20772 3.25512,6.28165 1.13654,2.07394 2.32439,4.12635 3.56416,6.15729 1.23978,2.03094 2.53204,4.03958 3.87506,6.0238 1.343,1.98421 2.73785,3.94556 4.1841,5.87932 1.44624,1.93378 2.94368,3.84066 4.49317,5.72023 1.54949,1.87958 2.92457,4.25726 5.05458,4.25726 0,0 0.84908,0.1951 2.79062,-1.74643 l 3.04298,-3.04299 3.04116,-3.04114 3.04298,-3.04299 3.04299,-3.04299 3.04116,-3.04116 3.04298,-3.04299 3.04118,-3.04115 3.04298,-3.04299 3.04299,-3.04299 3.04115,-3.04115 3.04298,-3.04299 3.04117,-3.04116 3.04298,-3.04298 c 0,0 2.18905,-1.89081 3.04299,-3.04299 0.68442,-0.92348 1.62019,-1.89171 1.62207,-3.04116 0.004,-2.27179 -1.75446,-3.96458 -3.18746,-6.0238 -1.43299,-2.05922 -2.76192,-4.16829 -3.99025,-6.31822 -1.22833,-2.14992 -2.35584,-4.34207 -3.37948,-6.56874 -1.02363,-2.22667 -1.94424,-4.48776 -2.76319,-6.77723 -0.81895,-2.28947 -1.53631,-4.60716 -2.15057,-6.94547 -0.61427,-2.33831 -1.12472,-4.69662 -1.5343,-7.06982 -0.40958,-2.37321 -0.71677,-4.76162 -0.92167,-7.15578 -0.19995,-2.33641 -0.30037,-4.67905 -0.30539,-7.02227 0.005,-2.34322 0.10544,-4.68588 0.30539,-7.02228 0.2049,-2.39415 0.51209,-4.78074 0.92167,-7.15394 0.40958,-2.37322 0.92003,-4.73334 1.5343,-7.07166 0.61427,-2.33831 1.33161,-4.656 2.15057,-6.94547 0.81895,-2.28946 1.73955,-4.55055 2.76319,-6.77723 1.02364,-2.22666 2.15116,-4.41883 3.37948,-6.56875 1.22833,-2.14992 2.55726,-4.25717 3.99025,-6.31639 1.433,-2.05921 3.19151,-3.752 3.18746,-6.02379 -0.002,-1.14945 -0.93765,-2.11951 -1.62207,-3.04299 -0.85394,-1.15218 -3.04299,-3.04116 -3.04299,-3.04116 l -3.04298,-3.04298 -3.04117,-3.04299 -3.04298,-3.04116 -3.04115,-3.04299 -3.04299,-3.04115 -3.04298,-3.04298 -3.04118,-3.04299 -3.04298,-3.04116 -3.04116,-3.04299 -3.04299,-3.04116 -3.04298,-3.04298 -3.04116,-3.04299 -3.04298,-3.04116 c -1.94154,-1.94154 -2.79062,-1.74642 -2.79062,-1.74642 z"
       id="path5643-3-3"
       inkscape:connector-curvature="0"
       transform="matrix(0,2.8340415,2.8340415,0,-1566.9992,774.80578)" />
    <g
       id="g4610"
       transform="matrix(-0.91549187,0,0,0.91549187,413.1649,783.26295)"
       style="opacity:0.9;stroke:#000000;stroke-width:6.49948359;stroke-miterlimit:4;stroke-dasharray:none;stroke-opacity:1;filter:url(#filter4635)">
      <g
         id="g4566"
         style="stroke:#000000;stroke-width:6.49948359;stroke-miterlimit:4;stroke-dasharray:none;stroke-opacity:1">
        <g
           id="g4568"
           style="stroke:#000000;stroke-width:6.49948359;stroke-miterlimit:4;stroke-dasharray:none;stroke-opacity:1">
          <path
             id="path4570"
             d="m 201.335,76.824 -0.079,-0.115 c -1.775,-2.43 -3.618,-4.946 -5.551,-7.755 -8.911,-12.945 -17.175,-19.226 -25.263,-19.226 -0.372,0 -0.744,0.007 -1.117,0.039 -1.958,-2.981 -8.092,-13.864 -13.306,-23.377 -5.758,-8.797 -11.148,-13.478 -16.524,-14.294 l -0.512,-0.036 c -1.922,0 -3.575,1.364 -4.928,4.091 -0.555,1.442 -0.186,3.747 5.204,16.048 -3.969,-6.646 -8.471,-13.163 -14.09,-15.26 -1.392,-0.523 -2.555,-0.766 -3.6,-0.766 -2.162,0 -3.271,1.07 -3.826,1.979 -1.589,2.577 -0.583,7.376 3.056,14.63 3.747,8.761 6.936,16.327 8.99,21.305 3.232,7.977 3.353,10.593 3.536,14.566 l 0.014,0.422 c 0.054,0.895 0.089,1.847 0.186,2.985 0.068,0.49 -0.49,1.084 -1.564,1.675 -0.941,0.515 -1.843,0.802 -2.53,0.802 -0.211,0 -0.408,-0.025 -0.526,-0.079 -5.826,-2.591 -10.275,-4.642 -13.256,-6.116 l -0.408,-0.15 c -10.98,-2.541 -21.144,-3.826 -30.188,-3.826 -41.604,0 -53.375,27.067 -59.702,41.615 l -0.469,1.099 -0.115,0.358 c -2.788,13.231 -4.552,26.244 -5.264,38.695 -1.263,-1.22 -2.681,-2.688 -3.94,-4.001 -4.667,-4.885 -7.211,-7.426 -9.495,-7.426 -4.026,0 -6.07,3.482 -6.07,10.343 0,6.857 7.891,20.246 18.066,27.221 2.147,1.539 4.749,1.525 7.415,-0.054 0.934,-0.569 1.496,-0.78 1.782,-0.859 4.831,4.502 8.897,7.974 12.093,10.314 1.231,1.657 2.534,3.3 3.862,4.885 2.04,2.584 3.776,4.184 5.311,4.899 4.713,2.051 11.706,3.59 21.369,4.699 4.806,0.608 11.943,1.761 17.676,2.673 l 0.88,0.132 c 2.888,0.465 4.613,0.741 5.64,0.902 l 0.018,0.333 0.462,-0.029 c 0.82,-0.039 1.675,-0.104 2.316,-0.465 2.834,-0.727 4.914,-2.384 6.202,-4.953 2.384,-4.806 0.981,-7.848 -0.623,-9.573 -0.802,-0.83 -2.781,-2.394 -6.045,-4.767 -1.27,-0.927 -2.928,-1.668 -4.409,-2.305 24.712,2.731 43.472,5.68 46.335,7.283 3.207,7.455 9.838,11.889 19.795,13.213 4.688,0 7.931,-1.814 9.598,-5.39 1.643,-3.242 0.265,-6.886 -4.116,-10.869 l -6.553,-4.86 c -2.212,-1.564 -3.629,-3.139 -4.502,-5.071 -2.026,-2.953 -1.879,-4.144 -1.843,-4.355 0.029,-0.107 0.068,-0.251 0.372,-0.426 7.122,-3.89 13.571,-10.049 19.161,-18.299 5.139,-7.584 7.974,-15.171 8.425,-22.575 6.474,-0.422 15.346,-5.404 21.713,-9.548 7.866,-5.111 11.853,-11.137 11.853,-17.905 0.007,-7.556 -4.81,-14.141 -10.916,-22.476 z m -54.62,90.305 c -0.462,2.015 0.304,4.491 2.265,7.269 0.991,2.316 2.913,4.491 5.683,6.438 l 6.352,4.699 c 1.865,1.707 3.919,4.101 3.035,5.866 -0.981,2.094 -2.795,3.071 -5.63,3.085 -8.471,-1.138 -13.847,-4.767 -16.43,-11.109 -0.555,-1.26 -1.829,-4.198 -49.757,-9.402 5.336,-3.575 10.046,-7.151 13.997,-10.647 9.437,-8.024 13.861,-15.135 13.145,-21.133 -0.319,-4.076 -2.834,-7.44 -7.483,-10.01 -3.01,-1.643 -7.093,-3.021 -12.139,-4.066 -1.893,-0.422 -3.106,-0.594 -3.157,-0.608 l -0.462,-0.068 -0.644,4.08 0.462,0.079 c 0.709,0.118 1.371,0.251 2.018,0.372 l 0.88,0.186 c 2.881,0.648 7.122,1.8 11.001,3.629 3.296,1.972 5.111,4.237 5.404,6.725 0.358,4.491 -3.693,10.608 -11.703,17.665 -5.887,5.003 -12.479,9.269 -16.083,11.599 -1.908,1.235 -2.834,1.829 -3.289,2.412 l -4.534,2.645 7.043,3.139 c 0.644,0.637 1.689,1.088 3.178,1.721 1.371,0.569 3.085,1.296 4.144,2.051 4.101,2.992 5.193,3.983 5.461,4.277 0.422,0.451 1.535,1.643 -0.079,4.885 -0.82,1.643 -2.133,2.609 -4.008,2.953 -0.701,-0.093 -2.741,-0.412 -5.082,-0.784 l -1.192,-0.193 c -5.343,-0.859 -13.414,-2.158 -18.71,-2.831 -9.122,-1.049 -15.915,-2.516 -20.181,-4.373 -0.404,-0.172 -1.568,-0.913 -3.801,-3.733 -1.324,-1.575 -2.648,-3.257 -3.987,-5.046 l -0.39,-0.379 c -3.146,-2.294 -7.329,-5.869 -12.472,-10.661 -0.591,-0.437 -1.317,-0.666 -2.097,-0.666 -1.152,0 -2.502,0.48 -4.119,1.485 -1.292,0.755 -2.044,0.82 -2.92,0.211 -8.775,-6.034 -16.302,-18.152 -16.302,-23.846 0,-3.826 0.723,-6.209 1.782,-6.234 0.963,0.211 4.656,4.066 6.667,6.17 2.079,2.183 3.933,4.101 5.59,5.522 l 3.418,2.967 0,-3.55 c 1.177,-0.583 1.689,-1.51 1.925,-2.265 l 0.075,-0.462 c 0.662,-12.436 2.409,-25.464 5.171,-38.648 l 0.397,-0.913 C 35.52,92.995 46.164,68.497 85.062,68.497 c 8.679,0 18.46,1.238 28.967,3.65 3.085,1.528 7.548,3.586 13.267,6.123 1.936,0.773 4.119,0.483 6.66,-0.898 3.547,-1.961 3.84,-4.431 3.693,-5.708 -0.089,-1.124 -0.132,-2.097 -0.172,-3.021 l -0.014,-0.179 c -0.2,-4.23 -0.333,-7.29 -3.84,-15.937 -1.986,-4.846 -5.111,-12.233 -9.019,-21.398 l -0.172,-0.319 c -3.547,-7.072 -3.497,-9.971 -3.153,-10.547 0,0 0.465,-0.193 2.452,0.548 5.322,1.986 10.289,10.533 14.287,17.44 3.84,6.614 6.861,11.839 10.475,12.673 l 0.809,0.186 0.716,-0.422 c 1.696,-1.006 1.614,-1.167 -2.119,-9.377 -2.623,-5.733 -9.52,-20.836 -9.881,-23.835 0.598,-1.084 0.981,-1.267 0.941,-1.285 4.026,0.623 8.578,4.785 13.517,12.326 13.532,24.701 14.276,25.485 15.983,25.485 l 0.293,-0.014 c 6.95,-1.099 14.895,4.749 23.556,17.311 1.865,2.724 3.654,5.179 5.39,7.541 l 0.315,0.437 c 5.884,8.024 10.117,13.818 10.117,20.027 0,5.358 -3.257,10.074 -9.971,14.448 -9.455,6.159 -17.093,9.377 -21.198,8.861 l -2.33,-0.29 0,2.326 c 0,7.219 -2.62,14.752 -7.788,22.364 -5.218,7.705 -11.187,13.428 -17.744,17.003 -1.26,0.729 -2.08,1.803 -2.384,3.113 z"
             style="fill:#010002;stroke:#000000;stroke-width:6.49948359;stroke-miterlimit:4;stroke-dasharray:none;stroke-opacity:1"
             inkscape:connector-curvature="0" />
          <path
             id="path4572"
             d="m 173.474,83.706 c 5.057,0 9.165,-4.109 9.165,-9.169 0,-5.053 -4.105,-9.162 -9.165,-9.162 -5.06,0 -9.165,4.109 -9.165,9.162 0.003,5.06 4.108,9.169 9.165,9.169 z m 0,-14.198 c 2.781,0 5.046,2.258 5.046,5.032 0,2.781 -2.265,5.046 -5.046,5.046 -2.777,0 -5.032,-2.265 -5.032,-5.046 0,-2.777 2.255,-5.032 5.032,-5.032 z"
             style="fill:#010002;stroke:#000000;stroke-width:6.49948359;stroke-miterlimit:4;stroke-dasharray:none;stroke-opacity:1"
             inkscape:connector-curvature="0" />
        </g>
      </g>
      <g
         id="g4574"
         style="stroke:#000000;stroke-width:6.49948359;stroke-miterlimit:4;stroke-dasharray:none;stroke-opacity:1" />
      <g
         id="g4576"
         style="stroke:#000000;stroke-width:6.49948359;stroke-miterlimit:4;stroke-dasharray:none;stroke-opacity:1" />
      <g
         id="g4578"
         style="stroke:#000000;stroke-width:6.49948359;stroke-miterlimit:4;stroke-dasharray:none;stroke-opacity:1" />
      <g
         id="g4580"
         style="stroke:#000000;stroke-width:6.49948359;stroke-miterlimit:4;stroke-dasharray:none;stroke-opacity:1" />
      <g
         id="g4582"
         style="stroke:#000000;stroke-width:6.49948359;stroke-miterlimit:4;stroke-dasharray:none;stroke-opacity:1" />
      <g
         id="g4584"
         style="stroke:#000000;stroke-width:6.49948359;stroke-miterlimit:4;stroke-dasharray:none;stroke-opacity:1" />
      <g
         id="g4586"
         style="stroke:#000000;stroke-width:6.49948359;stroke-miterlimit:4;stroke-dasharray:none;stroke-opacity:1" />
      <g
         id="g4588"
         style="stroke:#000000;stroke-width:6.49948359;stroke-miterlimit:4;stroke-dasharray:none;stroke-opacity:1" />
      <g
         id="g4590"
         style="stroke:#000000;stroke-width:6.49948359;stroke-miterlimit:4;stroke-dasharray:none;stroke-opacity:1" />
      <g
         id="g4592"
         style="stroke:#000000;stroke-width:6.49948359;stroke-miterlimit:4;stroke-dasharray:none;stroke-opacity:1" />
      <g
         id="g4594"
         style="stroke:#000000;stroke-width:6.49948359;stroke-miterlimit:4;stroke-dasharray:none;stroke-opacity:1" />
      <g
         id="g4596"
         style="stroke:#000000;stroke-width:6.49948359;stroke-miterlimit:4;stroke-dasharray:none;stroke-opacity:1" />
      <g
         id="g4598"
         style="stroke:#000000;stroke-width:6.49948359;stroke-miterlimit:4;stroke-dasharray:none;stroke-opacity:1" />
      <g
         id="g4600"
         style="stroke:#000000;stroke-width:6.49948359;stroke-miterlimit:4;stroke-dasharray:none;stroke-opacity:1" />
      <g
         id="g4602"
         style="stroke:#000000;stroke-width:6.49948359;stroke-miterlimit:4;stroke-dasharray:none;stroke-opacity:1" />
    </g>
  </g>
</svg>
