<?xml version="1.0" encoding="UTF-8" standalone="no"?>
<!-- Created with Inkscape (http://www.inkscape.org/) -->

<svg
   xmlns:dc="http://purl.org/dc/elements/1.1/"
   xmlns:cc="http://creativecommons.org/ns#"
   xmlns:rdf="http://www.w3.org/1999/02/22-rdf-syntax-ns#"
   xmlns:svg="http://www.w3.org/2000/svg"
   xmlns="http://www.w3.org/2000/svg"
   xmlns:xlink="http://www.w3.org/1999/xlink"
   xmlns:sodipodi="http://sodipodi.sourceforge.net/DTD/sodipodi-0.dtd"
   xmlns:inkscape="http://www.inkscape.org/namespaces/inkscape"
   width="600"
   height="750"
   viewBox="0 0 600 750"
   id="svg2"
   version="1.1"
   inkscape:version="0.91 r"
   sodipodi:docname="launchscreen.svg"
   inkscape:export-filename="/home/marcin/MultiDevice_Share/control_your_woman/media/launch_screen.png"
   inkscape:export-xdpi="90"
   inkscape:export-ydpi="90">
  <defs
     id="defs4">
    <filter
       style="color-interpolation-filters:sRGB"
       inkscape:label="Clean Edges"
       id="filter4793">
      <feGaussianBlur
         stdDeviation="0.203763"
         result="blur"
         id="feGaussianBlur4795" />
      <feComposite
         in="SourceGraphic"
         in2="blur"
         operator="in"
         result="composite1"
         id="feComposite4797" />
      <feComposite
         in="composite1"
         in2="composite1"
         operator="in"
         result="composite2"
         id="feComposite4799" />
    </filter>
    <filter
       inkscape:label="Cracked Lava"
       inkscape:menu="Materials"
       inkscape:menu-tooltip="A volcanic texture, a little like leather"
       style="color-interpolation-filters:sRGB"
       id="filter5021">
      <feGaussianBlur
         result="result0"
         in="SourceGraphic"
         stdDeviation="0.5"
         id="feGaussianBlur5023" />
    </filter>
    <linearGradient
       inkscape:collect="always"
       xlink:href="#linearGradient4654"
       id="linearGradient4660"
       x1="169.12515"
       y1="86.402351"
       x2="545.21454"
       y2="86.402351"
       gradientUnits="userSpaceOnUse" />
    <linearGradient
       inkscape:collect="always"
       id="linearGradient4654">
      <stop
         style="stop-color:#000000;stop-opacity:1;"
         offset="0"
         id="stop4656" />
      <stop
         style="stop-color:#000000;stop-opacity:0;"
         offset="1"
         id="stop4658" />
    </linearGradient>
  </defs>
  <sodipodi:namedview
     id="base"
     pagecolor="#ffffff"
     bordercolor="#666666"
     borderopacity="1.0"
     inkscape:pageopacity="0.0"
     inkscape:pageshadow="2"
     inkscape:zoom="0.7"
     inkscape:cx="-92.515607"
     inkscape:cy="289.86704"
     inkscape:document-units="px"
     inkscape:current-layer="layer1"
     showgrid="false"
     units="px"
     inkscape:window-width="1680"
     inkscape:window-height="1027"
     inkscape:window-x="0"
     inkscape:window-y="0"
     inkscape:window-maximized="1"
     showguides="false" />
  <metadata
     id="metadata7">
    <rdf:RDF>
      <cc:Work
         rdf:about="">
        <dc:format>image/svg+xml</dc:format>
        <dc:type
           rdf:resource="http://purl.org/dc/dcmitype/StillImage" />
        <dc:title />
      </cc:Work>
    </rdf:RDF>
  </metadata>
  <g
     inkscape:label="Layer 1"
     inkscape:groupmode="layer"
     id="layer1"
     transform="translate(0,-302.36216)">
    <flowRoot
       xml:space="preserve"
       id="flowRoot4644-5"
       style="font-style:normal;font-variant:normal;font-weight:normal;font-stretch:normal;font-size:40px;line-height:125%;font-family:sans-serif;-inkscape-font-specification:Normal;letter-spacing:0px;word-spacing:0px;fill:#b90c00;fill-opacity:1;stroke:#000000;stroke-width:1px;stroke-linecap:butt;stroke-linejoin:miter;stroke-opacity:1;filter:url(#filter5021);"
       transform="matrix(0.9630131,0,0,1.8239233,-105.76143,651.32334)"
       inkscape:export-filename="/home/marcin/MultiDevice_Share/control_your_man/media/graphics/flowRoot4644.png"
       inkscape:export-xdpi="90"
       inkscape:export-ydpi="90"><flowRegion
         id="flowRegion4646-1"
         style="fill:url(#linearGradient4660);fill-opacity:1"><rect
           id="rect4648-3"
           width="608.49292"
           height="67.866859"
           x="164.28572"
           y="68.85714"
           style="font-style:normal;font-variant:normal;font-weight:normal;font-stretch:normal;font-family:sans-serif;-inkscape-font-specification:Normal;fill:#b90c00;fill-opacity:1;stroke:#000000;stroke-opacity:1;" /></flowRegion><flowPara
         id="flowPara4652-1"
         style="fill:#b90c00;fill-opacity:1;stroke:#000000;stroke-opacity:1;">CONTROL YOUR PARTNER</flowPara></flowRoot>    <g
       id="g4206"
       transform="matrix(0.77114889,0,0,0.77114889,132.70868,420.07104)"
       style="fill:#c71c1c;fill-opacity:1;stroke:#01064f;stroke-opacity:1;stroke-width:3.89029932;stroke-miterlimit:4;stroke-dasharray:none">
      <path
         id="path4168"
         d="m 432.117,37.667 c -1.602,-1.604 -3.973,-2.165 -6.121,-1.456 l -69.984,23.095 c -1.978,0.653 -3.477,2.285 -3.959,4.312 -0.48,2.026 0.123,4.157 1.596,5.63 l 7.961,7.959 -18.615,18.616 c -20.723,-13.904 -45.643,-20.57 -70.75,-18.805 -27.115,1.896 -52.646,13.539 -71.891,32.782 -4.059,4.058 -7.793,8.438 -11.178,13.038 -36.334,-7.933 -75.85,2.172 -104.043,30.366 -19.244,19.243 -30.887,44.773 -32.785,71.889 -1.757,25.107 4.903,50.028 18.806,70.752 l -18.614,18.614 -7.963,-7.961 c -1.125,-1.126 -2.65,-1.758 -4.242,-1.758 -1.592,0 -3.117,0.632 -4.242,1.758 L 13.61,328.982 c -2.344,2.343 -2.344,6.142 0,8.484 l 7.961,7.962 -19.813,19.811 c -2.344,2.344 -2.344,6.143 -0.002,8.485 l 22.484,22.484 c 1.125,1.126 2.65,1.758 4.242,1.758 1.592,0 3.117,-0.632 4.242,-1.757 l 19.815,-19.814 7.961,7.959 c 2.34,2.343 6.141,2.344 8.484,0.001 l 22.482,-22.482 c 1.127,-1.126 1.758,-2.651 1.758,-4.243 0,-1.592 -0.631,-3.117 -1.758,-4.243 l -7.961,-7.96 18.621,-18.62 c 18.545,12.439 40.441,19.086 62.832,19.086 2.631,0 5.273,-0.092 7.912,-0.276 27.115,-1.897 52.646,-13.54 71.889,-32.784 4.034,-4.033 7.751,-8.385 11.119,-12.953 7.891,1.722 16.021,2.61 24.291,2.61 30.148,-0.001 58.494,-11.741 79.813,-33.061 19.244,-19.243 30.887,-44.774 32.785,-71.89 1.757,-25.105 -4.902,-50.024 -18.805,-70.749 l 18.615,-18.617 7.961,7.961 c 1.473,1.474 3.609,2.073 5.629,1.596 2.027,-0.482 3.658,-1.979 4.313,-3.958 l 23.094,-69.983 c 0.709,-2.151 0.147,-4.52 -1.457,-6.122 z M 236.276,304.349 c -35.055,35.053 -91.482,39.283 -131.258,9.832 l -0.006,0.01 c -2.35,-1.741 -5.67,-1.567 -7.799,0.561 L 70.78,341.185 c -1.127,1.126 -1.758,2.652 -1.758,4.243 0,1.592 0.631,3.117 1.758,4.243 l 7.961,7.96 -13.998,13.997 -7.961,-7.959 c -2.34,-2.344 -6.141,-2.343 -8.484,-10e-4 L 28.484,383.481 14.486,369.482 34.299,349.671 c 2.344,-2.344 2.344,-6.143 0.002,-8.485 l -7.961,-7.962 13.996,-13.998 7.963,7.961 c 2.342,2.344 6.143,2.344 8.484,0 l 26.433,-26.435 c 2.129,-2.128 2.303,-5.445 0.565,-7.793 l 0.005,-0.011 c -29.451,-39.774 -25.225,-96.203 9.832,-131.26 39.332,-39.33 103.326,-39.33 142.658,0 24.652,24.653 34.725,60.21 26.975,93.973 -6.766,-1.722 -13.314,-4.497 -19.389,-8.315 4.729,-25.958 -3.405,-52.246 -22.201,-71.042 -15.15,-15.149 -35.291,-23.493 -56.715,-23.493 -21.424,0 -41.564,8.343 -56.715,23.493 -15.146,15.148 -23.49,35.289 -23.49,56.713 0,21.424 8.344,41.564 23.492,56.713 15.15,15.149 35.291,23.493 56.715,23.493 0.002,0 0,0 0.002,0 21.422,0 41.564,-8.343 56.711,-23.491 0.736,-0.735 1.447,-1.502 2.156,-2.27 6.239,3.607 12.798,6.594 19.598,8.928 -2.241,2.766 -4.617,5.435 -7.139,7.959 z m 8.484,-151.145 c -4.185,-4.184 -8.62,-7.97 -13.257,-11.358 0.148,-0.15 0.288,-0.311 0.437,-0.46 12.883,-12.882 30.01,-19.976 48.229,-19.976 18.219,0 35.346,7.095 48.228,19.977 12.883,12.884 19.979,30.012 19.979,48.229 0,18.219 -7.094,35.346 -19.977,48.228 -14.58,14.579 -34.169,21.147 -53.275,19.741 8.345,-37.547 -2.965,-76.982 -30.364,-104.381 z m -11.842,85.584 c -0.327,-0.313 -0.656,-0.623 -0.979,-0.944 -14.43,-14.429 -21.465,-34.054 -19.737,-53.98 0.323,0.311 0.655,0.608 0.972,0.926 14.435,14.435 21.475,34.067 19.744,53.998 z m -32.562,30.641 c 4.16,4.161 8.592,7.952 13.25,11.367 -0.146,0.148 -0.283,0.306 -0.43,0.452 -12.883,12.882 -30.01,19.976 -48.229,19.976 -18.219,0 -35.346,-7.095 -48.229,-19.979 -12.883,-12.882 -19.979,-30.01 -19.979,-48.227 0,-18.217 7.094,-35.346 19.977,-48.229 12.883,-12.883 30.01,-19.978 48.229,-19.978 1.7,0 3.39,0.065 5.068,0.188 -8.369,37.562 2.931,77.019 30.343,104.43 z m 201.781,-168.667 -5.314,-5.315 c -1.127,-1.126 -2.652,-1.758 -4.244,-1.758 -1.59,0 -3.117,0.632 -4.242,1.758 l -26.436,26.437 c -2.13,2.129 -2.303,5.447 -0.563,7.797 l -0.008,0.006 c 29.451,39.775 25.225,96.204 -9.832,131.259 -19.053,19.053 -44.385,29.545 -71.328,29.546 -26.945,0 -52.277,-10.493 -71.33,-29.547 -24.662,-24.662 -34.729,-60.236 -26.959,-94.013 6.857,1.751 13.382,4.56 19.376,8.346 -4.734,25.963 3.399,52.257 22.198,71.053 3.141,3.14 6.485,5.949 9.98,8.459 0.223,0.177 0.455,0.344 0.703,0.489 13.762,9.656 29.891,14.506 46.031,14.506 20.539,0 41.078,-7.817 56.713,-23.454 15.15,-15.148 23.492,-35.289 23.492,-56.713 0,-21.424 -8.344,-41.564 -23.492,-56.714 -15.15,-15.15 -35.291,-23.492 -56.715,-23.492 -21.422,0 -41.564,8.343 -56.713,23.491 -0.743,0.743 -1.463,1.521 -2.181,2.298 -6.296,-3.624 -12.874,-6.57 -19.625,-8.881 2.255,-2.793 4.645,-5.488 7.189,-8.033 35.059,-35.054 91.486,-39.28 131.26,-9.831 0,0 4.455,2.612 7.807,-0.571 l 26.434,-26.436 c 1.125,-1.125 1.756,-2.651 1.756,-4.242 0,-1.592 -0.633,-3.118 -1.758,-4.243 l -5.314,-5.313 49.424,-16.31 -16.309,49.421 z"
         inkscape:connector-curvature="0"
         style="fill:#c71c1c;fill-opacity:1;stroke:#01064f;stroke-opacity:1;stroke-width:3.89029932;stroke-miterlimit:4;stroke-dasharray:none" />
      <g
         id="g4170"
         style="fill:#c71c1c;fill-opacity:1;stroke:#01064f;stroke-opacity:1;stroke-width:3.89029932;stroke-miterlimit:4;stroke-dasharray:none" />
      <g
         id="g4172"
         style="fill:#c71c1c;fill-opacity:1;stroke:#01064f;stroke-opacity:1;stroke-width:3.89029932;stroke-miterlimit:4;stroke-dasharray:none" />
      <g
         id="g4174"
         style="fill:#c71c1c;fill-opacity:1;stroke:#01064f;stroke-opacity:1;stroke-width:3.89029932;stroke-miterlimit:4;stroke-dasharray:none" />
      <g
         id="g4176"
         style="fill:#c71c1c;fill-opacity:1;stroke:#01064f;stroke-opacity:1;stroke-width:3.89029932;stroke-miterlimit:4;stroke-dasharray:none" />
      <g
         id="g4178"
         style="fill:#c71c1c;fill-opacity:1;stroke:#01064f;stroke-opacity:1;stroke-width:3.89029932;stroke-miterlimit:4;stroke-dasharray:none" />
      <g
         id="g4180"
         style="fill:#c71c1c;fill-opacity:1;stroke:#01064f;stroke-opacity:1;stroke-width:3.89029932;stroke-miterlimit:4;stroke-dasharray:none" />
      <g
         id="g4182"
         style="fill:#c71c1c;fill-opacity:1;stroke:#01064f;stroke-opacity:1;stroke-width:3.89029932;stroke-miterlimit:4;stroke-dasharray:none" />
      <g
         id="g4184"
         style="fill:#c71c1c;fill-opacity:1;stroke:#01064f;stroke-opacity:1;stroke-width:3.89029932;stroke-miterlimit:4;stroke-dasharray:none" />
      <g
         id="g4186"
         style="fill:#c71c1c;fill-opacity:1;stroke:#01064f;stroke-opacity:1;stroke-width:3.89029932;stroke-miterlimit:4;stroke-dasharray:none" />
      <g
         id="g4188"
         style="fill:#c71c1c;fill-opacity:1;stroke:#01064f;stroke-opacity:1;stroke-width:3.89029932;stroke-miterlimit:4;stroke-dasharray:none" />
      <g
         id="g4190"
         style="fill:#c71c1c;fill-opacity:1;stroke:#01064f;stroke-opacity:1;stroke-width:3.89029932;stroke-miterlimit:4;stroke-dasharray:none" />
      <g
         id="g4192"
         style="fill:#c71c1c;fill-opacity:1;stroke:#01064f;stroke-opacity:1;stroke-width:3.89029932;stroke-miterlimit:4;stroke-dasharray:none" />
      <g
         id="g4194"
         style="fill:#c71c1c;fill-opacity:1;stroke:#01064f;stroke-opacity:1;stroke-width:3.89029932;stroke-miterlimit:4;stroke-dasharray:none" />
      <g
         id="g4196"
         style="fill:#c71c1c;fill-opacity:1;stroke:#01064f;stroke-opacity:1;stroke-width:3.89029932;stroke-miterlimit:4;stroke-dasharray:none" />
      <g
         id="g4198"
         style="fill:#c71c1c;fill-opacity:1;stroke:#01064f;stroke-opacity:1;stroke-width:3.89029932;stroke-miterlimit:4;stroke-dasharray:none" />
    </g>
  </g>
</svg>
