<?xml version="1.0" encoding="UTF-8" standalone="no"?>
<!-- Generator: Adobe Illustrator 18.0.0, SVG Export Plug-In . SVG Version: 6.00 Build 0)  -->

<svg
   xmlns:dc="http://purl.org/dc/elements/1.1/"
   xmlns:cc="http://creativecommons.org/ns#"
   xmlns:rdf="http://www.w3.org/1999/02/22-rdf-syntax-ns#"
   xmlns:svg="http://www.w3.org/2000/svg"
   xmlns="http://www.w3.org/2000/svg"
   xmlns:xlink="http://www.w3.org/1999/xlink"
   xmlns:sodipodi="http://sodipodi.sourceforge.net/DTD/sodipodi-0.dtd"
   xmlns:inkscape="http://www.inkscape.org/namespaces/inkscape"
   version="1.1"
   id="Capa_1"
   x="0px"
   y="0px"
   viewBox="0 0 1000 1000"
   xml:space="preserve"
   inkscape:version="0.91 r"
   sodipodi:docname="fot_her_button.svg"
   inkscape:export-filename="/home/marcin/MultiDevice_Share/control_your_woman/media/common/for_her.png"
   inkscape:export-xdpi="54"
   inkscape:export-ydpi="54"
   width="1000"
   height="1000"><metadata
     id="metadata39"><rdf:RDF><cc:Work
         rdf:about=""><dc:format>image/svg+xml</dc:format><dc:type
           rdf:resource="http://purl.org/dc/dcmitype/StillImage" /><dc:title></dc:title></cc:Work></rdf:RDF></metadata><defs
     id="defs37"><marker
       inkscape:stockid="Arrow1Lstart"
       orient="auto"
       refY="0.0"
       refX="0.0"
       id="marker4587"
       style="overflow:visible"
       inkscape:isstock="true"><path
         id="path4589"
         d="M 0.0,0.0 L 5.0,-5.0 L -12.5,0.0 L 5.0,5.0 L 0.0,0.0 z "
         style="fill-rule:evenodd;stroke:#000000;stroke-width:1.0pt"
         transform="scale(0.8) translate(12.5,0)" /></marker><marker
       inkscape:stockid="Arrow1Lstart"
       orient="auto"
       refY="0.0"
       refX="0.0"
       id="Arrow1Lstart"
       style="overflow:visible"
       inkscape:isstock="true"><path
         id="path4323"
         d="M 0.0,0.0 L 5.0,-5.0 L -12.5,0.0 L 5.0,5.0 L 0.0,0.0 z "
         style="fill-rule:evenodd;stroke:#000000;stroke-width:1.0pt"
         transform="scale(0.8) translate(12.5,0)" /></marker><linearGradient
       inkscape:collect="always"
       id="linearGradient4153"><stop
         style="stop-color:#80b3ff;stop-opacity:1;"
         offset="0"
         id="stop4155" /><stop
         style="stop-color:#80b3ff;stop-opacity:0;"
         offset="1"
         id="stop4157" /></linearGradient><linearGradient
       inkscape:collect="always"
       xlink:href="#linearGradient4153"
       id="linearGradient4159"
       x1="-904.59467"
       y1="1532.4341"
       x2="12531.217"
       y2="-1235.6799"
       gradientUnits="userSpaceOnUse" /><filter
       inkscape:collect="always"
       style="color-interpolation-filters:sRGB"
       id="filter4225"
       x="-0.0023357062"
       width="1.0046714"
       y="-0.0024679335"
       height="1.0049359"><feGaussianBlur
         inkscape:collect="always"
         stdDeviation="0.0622855"
         id="feGaussianBlur4227" /></filter><filter
       inkscape:collect="always"
       style="color-interpolation-filters:sRGB"
       id="filter4315"
       x="-0.0072"
       width="1.0144"
       y="-0.0072"
       height="1.0144"><feGaussianBlur
         inkscape:collect="always"
         stdDeviation="2.9965031"
         id="feGaussianBlur4317" /></filter></defs><sodipodi:namedview
     pagecolor="#ffffff"
     bordercolor="#666666"
     borderopacity="1"
     objecttolerance="10"
     gridtolerance="10"
     guidetolerance="10"
     inkscape:pageopacity="0"
     inkscape:pageshadow="2"
     inkscape:window-width="1680"
     inkscape:window-height="1027"
     id="namedview35"
     showgrid="false"
     inkscape:zoom="0.36812067"
     inkscape:cx="528.22089"
     inkscape:cy="327.95494"
     inkscape:window-x="0"
     inkscape:window-y="0"
     inkscape:window-maximized="1"
     inkscape:current-layer="Capa_1" /><g
     id="g5"
     transform="translate(0,773.33901)" /><g
     id="g7"
     transform="translate(0,773.33901)" /><g
     id="g9"
     transform="translate(0,773.33901)" /><g
     id="g11"
     transform="translate(0,773.33901)" /><g
     id="g13"
     transform="translate(0,773.33901)" /><g
     id="g15"
     transform="translate(0,773.33901)" /><g
     id="g17"
     transform="translate(0,773.33901)" /><g
     id="g19"
     transform="translate(0,773.33901)" /><g
     id="g21"
     transform="translate(0,773.33901)" /><g
     id="g23"
     transform="translate(0,773.33901)" /><g
     id="g25"
     transform="translate(0,773.33901)" /><g
     id="g27"
     transform="translate(0,773.33901)" /><g
     id="g29"
     transform="translate(0,773.33901)" /><g
     id="g31"
     transform="translate(0,773.33901)" /><g
     id="g33"
     transform="translate(0,773.33901)" /><rect
     style="opacity:0.9;fill:url(#linearGradient4159);fill-opacity:1;fill-rule:nonzero;stroke:#010d72;stroke-width:10;stroke-miterlimit:4;stroke-dasharray:none;stroke-dashoffset:0;stroke-opacity:1;filter:url(#filter4315)"
     id="rect4151"
     width="998.83435"
     height="998.83435"
     x="0.58281666"
     y="0.5828253"
     rx="0"
     ry="0" /><g
     id="Multicolor"
     transform="matrix(12.753636,0,0,12.753636,-201.45,-223.31609)"
     style="opacity:0.953;stroke:#000000;stroke-width:0.68710715;stroke-miterlimit:4;stroke-dasharray:none;stroke-opacity:1;filter:url(#filter4225)"><g
       id="g5962"
       style="stroke:#000000;stroke-width:0.68710715;stroke-miterlimit:4;stroke-dasharray:none;stroke-opacity:1"><path
         style="fill:#fbc8c8;stroke:#000000;stroke-width:1.54400003;stroke-miterlimit:4;stroke-dasharray:none;stroke-opacity:1"
         d="m 480.25781,91.271484 c -16.29149,0 -20.22461,22.470706 -20.22461,22.470706 l -2.24804,-1.12305 -2.2461,-1.12305 c -2.2471,0 -4.49414,2.49566 -4.49414,4.99219 0,7.32331 2.15944,17.00606 8.55469,17.4375 l 7.17383,17.93555 11.47265,8.97851 c 0.15983,0.17949 0.32771,0.34791 0.50391,0.50782 0.17651,0.16041 0.35964,0.31133 0.55078,0.45117 1.14465,0.83739 2.53588,1.29883 3.97852,1.29883 l 5.96679,0 5.96485,0 c 1.92352,0 3.7546,-0.82192 5.0332,-2.25782 l 11.47266,-8.97851 7.17382,-17.93555 c 6.39526,-0.4292 8.55469,-10.11419 8.55469,-17.4375 0,-2.49653 -2.24704,-4.99219 -4.49414,-4.99219 l -4.49414,2.2461 -6.74023,-22.470706 -22.47071,6.609375 -15.73047,4.625001 c 0,0 3.37154,-4.733509 6.74219,-11.234376 z"
         transform="matrix(0.44501757,0,0,0.44501757,-162.72279,-4.5813019)"
         id="path5964"
         inkscape:connector-curvature="0" /><g
         id="g5966"
         style="stroke:#000000;stroke-width:0.68710715;stroke-miterlimit:4;stroke-dasharray:none;stroke-opacity:1"><path
           id="path5968"
           style="fill:#ffffff;stroke:#000000;stroke-width:0.68710715;stroke-miterlimit:4;stroke-dasharray:none;stroke-opacity:1"
           d="M 83,76 C 82.385,74.667 81.302,73.605 79.957,73.017 L 68,69 55,69 42,69 30.043,73.017 C 28.698,73.605 27.615,74.667 27,76 l -4,11 64,0 -4,-11 z"
           inkscape:connector-curvature="0" /></g><g
         id="g5970"
         style="stroke:#000000;stroke-width:0.68710715;stroke-miterlimit:4;stroke-dasharray:none;stroke-opacity:1"><polygon
           id="polygon5972"
           style="fill:#f79392;stroke:#000000;stroke-width:0.68710715;stroke-miterlimit:4;stroke-dasharray:none;stroke-opacity:1"
           points="24.078,84.036 85.922,84.036 84.831,81.036 25.169,81.036 " /></g><g
         id="g5974"
         style="stroke:#000000;stroke-width:0.68710715;stroke-miterlimit:4;stroke-dasharray:none;stroke-opacity:1"><path
           id="path5976"
           style="fill:#f79392;stroke:#000000;stroke-width:0.68710715;stroke-miterlimit:4;stroke-dasharray:none;stroke-opacity:1"
           d="m 27,76 -0.377,1.036 56.754,0 L 83,76 c -0.351,-0.76 -0.867,-1.417 -1.484,-1.964 l -53.032,0 C 27.867,74.583 27.351,75.24 27,76 Z"
           inkscape:connector-curvature="0" /></g><g
         id="g5978"
         style="stroke:#000000;stroke-width:0.68710715;stroke-miterlimit:4;stroke-dasharray:none;stroke-opacity:1"><path
           id="path5980"
           style="fill:#21b2d1;stroke:#000000;stroke-width:0.68710715;stroke-miterlimit:4;stroke-dasharray:none;stroke-opacity:1"
           d="m 55,79.072 c 3.857,0 13,-1 13,-7 0,-0.676 0,-1.789 0,-3.072 l -3,0 0,3.072 c 0,0 -2,4 -10,4 -8,0 -10,-4 -10,-4 L 45,69 42,69 c 0,1.283 0,2.396 0,3.072 0,6 9.143,7 13,7 z"
           inkscape:connector-curvature="0" /></g><path
         id="path5982"
         style="fill:#f7b4b4;stroke:#000000;stroke-width:0.68710715;stroke-miterlimit:4;stroke-dasharray:none;stroke-opacity:1"
         d="M 57.655,68 55,68 52.345,67.550464 c -0.843988,-0.142901 -1.671,-0.366 -2.24,-1.005 L 45,63 l 0,9.036 c 0,0 2,4 10,4 8,0 10,-4 10,-4 L 65,63 59.895,66.995 C 59.326,67.634 58.511,68 57.655,68 Z"
         inkscape:connector-curvature="0"
         sodipodi:nodetypes="scscccscccs" /><g
         id="g5988"
         style="stroke:#000000;stroke-width:0.68710715;stroke-miterlimit:4;stroke-dasharray:none;stroke-opacity:1"><path
           id="path5990"
           style="fill:#3e3e3f;stroke:#000000;stroke-width:0.68710715;stroke-miterlimit:4;stroke-dasharray:none;stroke-opacity:1"
           d="m 52,47.036 c 0,-1.104 -0.896,-2 -2,-2 -0.002,0 -0.004,0 -0.006,0 10e-4,0.022 0.006,0.042 0.006,0.063 0,1.103 -0.892,1.996 -1.994,2 0.033,1.075 0.91,1.938 1.994,1.938 1.104,-10e-4 2,-0.896 2,-2.001 z"
           inkscape:connector-curvature="0" /></g><g
         id="g5992"
         style="stroke:#000000;stroke-width:0.68710715;stroke-miterlimit:4;stroke-dasharray:none;stroke-opacity:1"><path
           id="path5994"
           style="fill:#3e3e3f;stroke:#000000;stroke-width:0.68710715;stroke-miterlimit:4;stroke-dasharray:none;stroke-opacity:1"
           d="m 61.994,47.036 c 0,-1.104 -0.896,-2 -2,-2 -0.002,0 -0.004,0 -0.006,0 10e-4,0.021 0.006,0.041 0.006,0.062 0,1.103 -0.892,1.996 -1.994,2 0.033,1.075 0.91,1.938 1.994,1.938 1.104,0 2,-0.895 2,-2 z"
           inkscape:connector-curvature="0" /></g><g
         id="g5996"
         style="stroke:#000000;stroke-width:0.68710715;stroke-miterlimit:4;stroke-dasharray:none;stroke-opacity:1"><path
           id="path5998"
           style="fill:#f79392;stroke:#000000;stroke-width:0.68710715;stroke-miterlimit:4;stroke-dasharray:none;stroke-opacity:1"
           d="m 50,58.036 10,0 c 0,0 0,3 -5,3 -5,0 -5,-3 -5,-3 z"
           inkscape:connector-curvature="0" /></g><g
         id="g6000"
         style="stroke:#000000;stroke-width:0.68710715;stroke-miterlimit:4;stroke-dasharray:none;stroke-opacity:1"><path
           id="path6002"
           style="fill:#84462d;stroke:#000000;stroke-width:0.68710715;stroke-miterlimit:4;stroke-dasharray:none;stroke-opacity:1"
           d="m 55,26.429 c -8.284,0 -15,6.42 -15,15 l 0,3.607 2,1 c 0,0 1.75,-10 9,-10 -1.5,2.893 -3,5 -3,5 l 17,-5 3,10 2,-1 0,-3.607 c 0,-8.58 -6.716,-15 -15,-15 z"
           inkscape:connector-curvature="0" /></g></g></g></svg>