<?xml version="1.0" encoding="UTF-8" standalone="no"?>
<!-- Created with Inkscape (http://www.inkscape.org/) -->

<svg
   xmlns:dc="http://purl.org/dc/elements/1.1/"
   xmlns:cc="http://creativecommons.org/ns#"
   xmlns:rdf="http://www.w3.org/1999/02/22-rdf-syntax-ns#"
   xmlns:svg="http://www.w3.org/2000/svg"
   xmlns="http://www.w3.org/2000/svg"
   xmlns:xlink="http://www.w3.org/1999/xlink"
   xmlns:sodipodi="http://sodipodi.sourceforge.net/DTD/sodipodi-0.dtd"
   xmlns:inkscape="http://www.inkscape.org/namespaces/inkscape"
   width="300"
   height="225"
   viewBox="0 0 300 225"
   id="svg2"
   version="1.1"
   inkscape:version="0.91 r"
   sodipodi:docname="triag02.svg"
   inkscape:export-filename="/home/marcin/MultiDevice_Share/control_your_woman/media/graphics/button_trgl02.png"
   inkscape:export-xdpi="90"
   inkscape:export-ydpi="90">
  <defs
     id="defs4">
    <linearGradient
       inkscape:collect="always"
       id="linearGradient4477">
      <stop
         style="stop-color:#ff695b;stop-opacity:1;"
         offset="0"
         id="stop4479" />
      <stop
         style="stop-color:#ff695b;stop-opacity:0;"
         offset="1"
         id="stop4481" />
    </linearGradient>
    <marker
       inkscape:stockid="Arrow1Lstart"
       orient="auto"
       refY="0"
       refX="0"
       id="marker9661"
       style="overflow:visible"
       inkscape:isstock="true">
      <path
         id="path9663"
         d="M 0,0 5,-5 -12.5,0 5,5 0,0 Z"
         style="fill:#1a1a1a;fill-opacity:1;fill-rule:evenodd;stroke:none;stroke-width:1pt;stroke-opacity:1"
         transform="matrix(0.8,0,0,0.8,10,0)"
         inkscape:connector-curvature="0" />
    </marker>
    <marker
       inkscape:stockid="Arrow1Lstart"
       orient="auto"
       refY="0"
       refX="0"
       id="marker9627"
       style="overflow:visible"
       inkscape:isstock="true">
      <path
         id="path9629"
         d="M 0,0 5,-5 -12.5,0 5,5 0,0 Z"
         style="fill:#000000;fill-opacity:1;fill-rule:evenodd;stroke:none;stroke-width:1pt;stroke-opacity:1"
         transform="matrix(0.8,0,0,0.8,10,0)"
         inkscape:connector-curvature="0" />
    </marker>
    <marker
       inkscape:stockid="Arrow1Lstart"
       orient="auto"
       refY="0"
       refX="0"
       id="marker9599"
       style="overflow:visible"
       inkscape:isstock="true">
      <path
         id="path9601"
         d="M 0,0 5,-5 -12.5,0 5,5 0,0 Z"
         style="fill:#000000;fill-opacity:1;fill-rule:evenodd;stroke:none;stroke-width:1pt;stroke-opacity:1"
         transform="matrix(0.8,0,0,0.8,10,0)"
         inkscape:connector-curvature="0" />
    </marker>
    <marker
       inkscape:stockid="Arrow1Lstart"
       orient="auto"
       refY="0"
       refX="0"
       id="marker9142"
       style="overflow:visible"
       inkscape:isstock="true">
      <path
         id="path9144"
         d="M 0,0 5,-5 -12.5,0 5,5 0,0 Z"
         style="fill:#000000;fill-opacity:1;fill-rule:evenodd;stroke:none;stroke-width:1pt;stroke-opacity:1"
         transform="matrix(0.8,0,0,0.8,10,0)"
         inkscape:connector-curvature="0" />
    </marker>
    <marker
       inkscape:stockid="Arrow1Lstart"
       orient="auto"
       refY="0"
       refX="0"
       id="Arrow1Lstart"
       style="overflow:visible"
       inkscape:isstock="true">
      <path
         id="path8796"
         d="M 0,0 5,-5 -12.5,0 5,5 0,0 Z"
         style="fill:#000000;fill-opacity:1;fill-rule:evenodd;stroke:none;stroke-width:1pt;stroke-opacity:1"
         transform="matrix(0.8,0,0,0.8,10,0)"
         inkscape:connector-curvature="0" />
    </marker>
    <inkscape:perspective
       sodipodi:type="inkscape:persp3d"
       inkscape:vp_x="0 : 500 : 1"
       inkscape:vp_y="0 : 1000 : 0"
       inkscape:vp_z="1000 : 500 : 1"
       inkscape:persp3d-origin="500 : 333.33333 : 1"
       id="perspective4314" />
    <filter
       inkscape:collect="always"
       style="color-interpolation-filters:sRGB"
       id="filter5671"
       x="-0.0048480001"
       width="1.009696"
       y="-0.0047529414"
       height="1.0095059">
      <feGaussianBlur
         inkscape:collect="always"
         stdDeviation="0.44021676"
         id="feGaussianBlur5673" />
    </filter>
    <filter
       inkscape:collect="always"
       style="color-interpolation-filters:sRGB"
       id="filter5738"
       x="-0.0051402897"
       width="1.0102806"
       y="-0.0045019677"
       height="1.0090039">
      <feGaussianBlur
         inkscape:collect="always"
         stdDeviation="0.45062961"
         id="feGaussianBlur5740" />
    </filter>
    <linearGradient
       inkscape:collect="always"
       xlink:href="#linearGradient4477"
       id="linearGradient4483"
       x1="88.893417"
       y1="1013.9764"
       x2="846.50781"
       y2="491.72751"
       gradientUnits="userSpaceOnUse"
       gradientTransform="matrix(0.75189829,0,0,0.90555773,0.69878132,101.66653)" />
    <filter
       inkscape:collect="always"
       style="color-interpolation-filters:sRGB"
       id="filter4328"
       x="-0.0035999999"
       width="1.0072"
       y="-0.0036000002"
       height="1.0072">
      <feGaussianBlur
         inkscape:collect="always"
         stdDeviation="0.26571428"
         id="feGaussianBlur4330" />
    </filter>
    <filter
       inkscape:collect="always"
       style="color-interpolation-filters:sRGB"
       id="filter4286"
       x="-0.0095999995"
       width="1.0192"
       y="-0.0096000005"
       height="1.0192">
      <feGaussianBlur
         inkscape:collect="always"
         stdDeviation="0.63481673"
         id="feGaussianBlur4288" />
    </filter>
    <filter
       inkscape:collect="always"
       style="color-interpolation-filters:sRGB"
       id="filter4281"
       x="-0.022171536"
       width="1.0443431"
       y="-0.035313364"
       height="1.0706267">
      <feGaussianBlur
         inkscape:collect="always"
         stdDeviation="2.502743"
         id="feGaussianBlur4283" />
    </filter>
  </defs>
  <sodipodi:namedview
     id="base"
     pagecolor="#ffffff"
     bordercolor="#666666"
     borderopacity="1.0"
     inkscape:pageopacity="0.0"
     inkscape:pageshadow="2"
     inkscape:zoom="1.4"
     inkscape:cx="-114.89653"
     inkscape:cy="-18.767971"
     inkscape:document-units="px"
     inkscape:current-layer="layer1"
     showgrid="false"
     units="px"
     inkscape:window-width="1680"
     inkscape:window-height="1027"
     inkscape:window-x="0"
     inkscape:window-y="0"
     inkscape:window-maximized="1"
     showguides="true"
     inkscape:guide-bbox="true">
    <sodipodi:guide
       position="1204.1018,-240.41631"
       orientation="0,1"
       id="guide4460" />
  </sodipodi:namedview>
  <metadata
     id="metadata7">
    <rdf:RDF>
      <cc:Work
         rdf:about="">
        <dc:format>image/svg+xml</dc:format>
        <dc:type
           rdf:resource="http://purl.org/dc/dcmitype/StillImage" />
        <dc:title />
      </cc:Work>
    </rdf:RDF>
  </metadata>
  <g
     inkscape:label="Layer 1"
     inkscape:groupmode="layer"
     id="layer1"
     transform="translate(0,-827.36216)"
     style="display:inline">
    <path
       style="display:inline;opacity:1;fill:#000000;fill-opacity:1;stroke:none;stroke-width:1.21500003;stroke-miterlimit:3.9000001;stroke-dasharray:none;stroke-dashoffset:0;stroke-opacity:1;filter:url(#filter4281)"
       d="m 144.69097,759.56414 c -11.9038,-0.0231 -41.04857,1.9373 -50.325024,18.00455 l -8.78123,15.21024 -8.78124,15.20815 -8.78122,15.20813 -8.78123,15.2082 -8.77916,15.21024 -8.78124,15.20812 -8.78122,15.20819 -8.78124,15.21014 c -20.1400503,31.13029 -17.4240003,30.41623 17.56246,30.41623 l 17.5604,0 17.56245,0 17.56247,0 17.560374,0 17.56246,0 17.41649,0 0.1439,0 17.41648,0 17.56246,0 17.56037,0 17.56247,0 17.56037,0 17.56245,0 c 34.98647,0 37.70253,0.71416 17.56247,-30.41623 l -8.78123,-15.21014 -8.78124,-15.20819 -8.78121,-15.20812 -8.78124,-15.21024 -8.77914,-15.2082 -8.78123,-15.20813 -8.78124,-15.20815 -8.78123,-15.21024 c -12.25767,-18.78116 -38.79593,-17.92504 -54.89751,-18.00455 z"
       id="path4258-1"
       inkscape:connector-curvature="0"
       sodipodi:nodetypes="ccccccccccsccccccccccccscccccccccc"
       transform="matrix(1.0055531,0,0,-1.1365864,2.2066106,1899.8353)" />
    <path
       style="opacity:1;fill:url(#linearGradient4483);fill-opacity:1;stroke:#919191;stroke-width:1.42215049;stroke-miterlimit:3.9000001;stroke-dasharray:none;stroke-dashoffset:0;stroke-opacity:1"
       d="m 147.80534,1033.0616 c -11.40988,0.026 -39.34535,-2.1217 -48.236876,-19.7202 L 91.151606,996.68189 82.734722,980.02458 74.317866,963.36715 65.900998,946.71 57.486126,930.05027 49.069258,913.39294 40.652403,896.7356 32.235535,880.07602 C 12.931157,845.9794 15.534512,846.76134 49.069258,846.76134 l 16.83174,0 16.833724,0 16.833742,0 16.831746,0 16.83373,0 16.69384,0 0.13784,0 16.69381,0 16.83374,0 16.83175,0 16.83374,0 16.83172,0 16.83372,0 c 33.53476,0 36.1381,-0.78214 16.83373,33.31468 l -8.41684,16.65958 -8.41689,16.65734 -8.41685,16.65733 -8.41687,16.65973 -8.41489,16.65715 -8.41683,16.65743 -8.41689,16.65731 -8.41685,16.65951 c -11.74908,20.571 -37.18619,19.6333 -52.61966,19.7202 z"
       id="path4258"
       inkscape:connector-curvature="0"
       sodipodi:nodetypes="ccccccccccsccccccccccccscccccccccc" />
    <g
       id="g4216"
       style="opacity:0.9;filter:url(#filter4286)"
       transform="matrix(0.80927489,0,0,0.79743961,-12.796417,195.70932)">
      <flowRoot
         transform="matrix(1.6344469,0,0,1.6344469,594.4142,1045.3418)"
         style="font-style:normal;font-variant:normal;font-weight:normal;font-stretch:normal;font-size:40px;line-height:125%;font-family:'Droid Serif';-inkscape-font-specification:'Droid Serif';letter-spacing:0px;word-spacing:0px;fill:#000000;fill-opacity:1;stroke:none;stroke-width:1px;stroke-linecap:butt;stroke-linejoin:miter;stroke-opacity:1;filter:url(#filter4328)"
         id="flowRoot4233"
         xml:space="preserve"><flowRegion
           id="flowRegion4235"><rect
             style="font-style:normal;font-variant:normal;font-weight:normal;font-stretch:normal;font-family:'Droid Serif';-inkscape-font-specification:'Droid Serif'"
             y="-107.594"
             x="-266.68027"
             height="125.25892"
             width="211.12189"
             id="rect4237" /></flowRegion><flowPara
           id="flowPara4239">NO</flowPara></flowRoot>      <g
         transform="matrix(0.89591073,0,0,0.89591073,29.823815,782.59253)"
         id="g4281"
         style="filter:url(#filter4328)">
        <g
           id="g4242">
          <path
             sodipodi:nodetypes="sscccssssscccsss"
             inkscape:connector-curvature="0"
             id="WhatsApp"
             d="m 286.49187,141.34354 c 0,47.65732 -38.9301,86.29021 -86.9614,86.29021 -15.24806,0 -29.57302,-3.89714 -42.036,-10.73682 l -48.14546,15.29923 15.69683,-46.29727 c -7.91829,-13.00228 -12.47873,-28.25231 -12.47873,-44.55535 0,-47.657337 38.93403,-86.290226 86.96336,-86.290226 48.03524,0 86.9614,38.632889 86.9614,86.290226 z m -86.9614,-72.547877 c -40.31771,0 -73.11276,32.545077 -73.11276,72.547877 0,15.87396 5.17454,30.57485 13.92736,42.53396 l -9.13466,26.94343 28.09682,-8.92997 c 11.54381,7.57974 25.37276,12.00044 40.22521,12.00044 40.31181,0 73.11276,-32.54114 73.11276,-72.54393 0,-40.00279 -32.79898,-72.551807 -73.11473,-72.551807 z" />
        </g>
        <g
           id="g4245" />
        <g
           id="g4247" />
        <g
           id="g4249" />
        <g
           id="g4251" />
        <g
           id="g4253" />
        <g
           id="g4255" />
        <g
           id="g4257" />
        <g
           id="g4259" />
        <g
           id="g4261" />
        <g
           id="g4263" />
        <g
           id="g4265" />
        <g
           id="g4267" />
        <g
           id="g4269" />
        <g
           id="g4271" />
        <g
           id="g4273" />
      </g>
    </g>
  </g>
  <g
     inkscape:groupmode="layer"
     id="layer6"
     inkscape:label="slippers"
     style="display:none"
     transform="translate(0,-175)">
    <path
       style="display:inline;opacity:0.85;fill:#1a1a1a;filter:url(#filter5738)"
       d="m 148.32249,277.8208 c -18.78095,-10.00835 -36.52071,-55.94847 -47.2681,-122.40884 -2.260429,-13.97823 -3.959109,-33.14987 -4.076579,-46.00925 -0.18279,-20.010847 0.23262,-23.030507 4.500849,-32.716757 5.79767,-13.15715 15.27571,-23.19077 28.32605,-29.986451 23.68157,-12.3317 51.52465,-2.65532 59.07087,20.529051 0.85795,2.63589 1.5599,32.828747 1.5599,67.095247 0,34.26649 0.70856,73.51722 1.57458,87.22382 1.11458,17.64081 0.96921,27.27571 -0.49766,32.9812 -5.43501,21.13994 -26.20705,32.34217 -43.18991,23.29198 z m 27.9474,-13.83499 c 8.7195,-10.78918 9.06471,-17.38191 4.12949,-78.86133 -1.69531,-21.11892 -1.6715,-34.67415 0.11179,-63.61002 2.40048,-38.951757 1.82329,-47.760117 -3.76378,-57.436587 -10.31516,-17.865301 -42.71052,-15.656731 -58.94133,4.01838 -11.06635,13.41472 -13.60017,26.30878 -11.04832,56.222707 4.88911,57.31234 22.10227,118.69789 38.80035,138.3697 6.80183,8.01317 7.08281,8.13534 16.7469,7.28237 7.8379,-0.6918 10.66682,-1.90425 13.96495,-5.98522 z m -30.5626,-12.08559 c -2.27646,-2.4229 -1.15431,-4.38688 12.4371,-21.76736 8.93284,-11.42317 14.68066,-17.22614 16.6605,-16.82032 5.48953,1.12521 3.17339,6.78075 -9.5853,23.40529 -11.52706,15.01973 -16.22826,18.67771 -19.5123,15.18239 z m -7.17337,-22.45676 c -1.41914,-3.93612 7.29624,-16.52238 11.44095,-16.52238 4.79863,0 4.61089,6.27781 -0.40364,13.49668 -4.16872,6.0012 -9.4432,7.44712 -11.03731,3.0257 z m -4.53996,-38.60523 c -1.89231,-2.56044 -5.67581,-11.96889 -8.4078,-20.90768 -9.21317,-30.14447 -4.33794,-54.71237 15.57598,-78.492657 5.11798,-6.11165 8.75924,-12.30736 8.77537,-14.93152 0.0153,-2.46692 0.80262,-5.77928 1.74987,-7.36082 2.66417,-4.44808 7.94348,0.11201 9.10394,7.86377 0.53632,3.58259 2.96787,10.82706 5.40341,16.09882 4.14973,8.982137 4.42603,11.514317 4.39275,40.257147 -0.0478,41.30428 -3.71666,57.95058 -11.62569,52.74807 -1.89971,-1.24962 -1.87365,-3.95464 0.14146,-14.67945 4.74553,-25.25678 2.14341,-79.284267 -3.81858,-79.284267 -2.99425,0 -14.79094,14.949007 -19.00121,24.078737 -8.20994,17.80283 -7.48539,38.77873 2.13968,61.94281 2.35524,5.66822 4.28225,11.40022 4.28225,12.73775 0,4.6606 -5.24621,4.61801 -8.71143,-0.0707 z m 103.27105,89.31481 c -7.91978,-2.03428 -12.54682,-5.07632 -17.76972,-11.68272 -7.56017,-9.56274 -8.9921,-18.86938 -7.21963,-46.9227 0.86602,-13.7066 1.57458,-52.95733 1.57458,-87.22382 0,-34.2665 0.70196,-64.459357 1.5599,-67.095247 7.54621,-23.184371 35.38931,-32.860751 59.07087,-20.529051 13.05033,6.795681 22.52837,16.829301 28.32604,29.986451 4.26823,9.68625 4.68364,12.70591 4.50085,32.716757 -0.22549,24.68418 -5.12411,58.50175 -13.24831,91.45961 -10.21235,41.42898 -24.39701,69.82473 -38.513,77.09776 -8.16732,4.20812 -9.71381,4.39361 -18.28158,2.19296 z m 21.63552,-17.66801 c 16.52255,-19.46504 33.76175,-81.12765 38.62748,-138.16607 2.55186,-29.913927 0.018,-42.807987 -11.04831,-56.222707 -16.23079,-19.675111 -48.62616,-21.883681 -58.94133,-4.01838 -5.58705,9.67647 -6.16425,18.48483 -3.76376,57.436587 1.79499,29.12679 1.81109,42.35175 0.0775,63.61002 -4.47398,54.85943 -4.45146,62.27171 0.21835,71.88125 4.81922,9.91698 10.1195,13.35737 20.63987,13.39731 6.45945,0.0246 8.33834,-1.0239 14.1903,-7.91801 z m -25.49075,-12.19262 c -0.64264,-1.78242 2.99454,-8.06113 9.51248,-16.42103 5.80412,-7.44434 11.66495,-15.20358 13.02406,-17.24273 1.35911,-2.03917 3.90656,-3.70757 5.661,-3.70757 6.96998,0 4.94703,5.95462 -7.76479,22.8558 -12.57761,16.72273 -18.19753,20.71515 -20.43275,14.51553 z m -7.20788,-21.09632 c -1.27397,-3.5335 7.50323,-16.27501 11.21129,-16.27501 4.84857,0 4.83031,5.68388 -0.0401,12.48011 -5.08231,7.09193 -9.4478,8.5749 -11.17119,3.7949 z m 37.20437,-35.36028 c -2.29047,-1.56525 -2.33305,-2.7411 -0.29505,-8.14583 9.17576,-24.33387 10.01418,-27.88436 10.09262,-42.73965 0.0936,-17.73086 -4.63869,-30.87562 -15.87353,-44.091167 -6.19231,-7.28403 -6.64966,-7.48945 -9.13276,-4.1022 -7.00481,9.555417 -8.60544,50.108927 -2.88582,73.114457 2.81624,11.32743 2.95452,13.84159 0.88714,16.12987 -4.04744,4.47998 -7.18176,-0.34136 -10.79519,-16.6055 -6.18433,-27.83584 -3.60353,-65.6356 5.45089,-79.836367 2.34988,-3.68552 4.52983,-9.55203 4.84432,-13.03666 0.43814,-4.85485 1.41375,-6.33571 4.17406,-6.33571 2.79088,0 3.73529,1.48754 4.19287,6.60414 0.42103,4.708 3.09802,9.52417 9.3237,16.77429 19.7075,22.950337 24.57753,48.042827 15.24847,78.566487 -5.60673,18.34469 -10.93655,26.63903 -15.23172,23.70384 z"
       id="path5702"
       inkscape:connector-curvature="0"
       inkscape:export-filename="/home/marcin/remote control/v3/button_trgl_flower.png"
       inkscape:export-xdpi="90"
       inkscape:export-ydpi="90" />
  </g>
  <g
     inkscape:groupmode="layer"
     id="layer4"
     inkscape:label="shower"
     style="display:inline"
     transform="translate(0,-175)" />
  <g
     inkscape:groupmode="layer"
     id="layer5"
     inkscape:label="flowers"
     style="display:none"
     transform="translate(0,-175)">
    <path
       style="display:inline;opacity:0.7229996;fill:#000000;fill-opacity:1;filter:url(#filter5671)"
       d="m 181.04503,256.26205 c -0.32261,-1.1949 -1.35069,-7.2568 -2.28444,-13.4707 -3.88688,-25.86299 -20.91683,-46.9305 -37.93629,-46.9305 -2.89559,0 -7.41325,-1.13331 -10.03932,-2.51846 -4.90002,-2.58457 -15.50493,-13.83222 -15.50493,-16.44457 0,-0.80322 -2.4042,-1.95087 -5.34276,-2.55034 -9.25199,-1.88742 -16.32942,-7.67554 -20.95005,-17.13355 -2.40914,-4.93135 -4.380363,-11.57525 -4.380363,-14.76423 0,-6.78383 3.950593,-17.19775 8.412193,-22.17532 2.11641,-2.36119 3.37327,-7.0405 3.86281,-14.38092 0.57929,-8.688488 1.80899,-12.448778 6.1028,-18.662378 l 5.37721,-7.78152 -3.18153,-7.4101 c -1.74985,-4.07554 -5.94453,-11.31846 -9.32138,-16.09535 -3.37697,-4.77691 -6.13984,-10.15944 -6.13984,-11.96121 0,-2.98451 1.10734,-3.20343 12.4476,-2.46109 8.50528,0.55675 15.5648,2.27044 22.2895,5.41074 l 9.8419,4.59592 4.46987,-5.41851 c 8.01402,-9.7146 21.56773,-12.79233 33.65297,-7.64175 5.16028,2.19929 6.65851,2.19929 11.81892,0 8.45392,-3.60298 17.7716,-3.11403 26.5327,1.39231 5.94736,3.05913 8.53108,5.86264 11.86349,12.87269 3.72564,7.83747 5.15053,9.19888 11.35742,10.85133 14.42647,3.84072 22.72384,15.27121 22.72384,31.30432 0,4.75423 0.70473,9.088358 1.56614,9.631378 0.8614,0.54302 5.58438,-1.5618 10.49564,-4.677368 7.88315,-5.00084 10.34118,-5.66468 20.97486,-5.66468 14.0404,0 15.9289,2.32269 8.51898,10.478068 -6.91359,7.60922 -10.24303,16.79669 -17.71579,48.88698 -3.7502,16.10476 -7.6682,32.41007 -8.70653,36.23403 -8.43811,31.07674 -37.35477,57.79878 -71.36738,65.95128 -13.52618,3.242 -18.66893,3.3832 -19.43824,0.5335 z m 37.5759,-17.0664 c 25.1483,-12.2423 41.42302,-35.01708 48.35588,-67.66911 6.31528,-29.74339 13.56593,-56.14884 17.09118,-62.2433 1.90357,-3.2908 3.11005,-6.34114 2.68126,-6.77853 -0.94881,-0.96778 -14.3682,5.13005 -18.5925,8.44849 -2.73262,2.1467 -2.83485,3.32134 -0.99537,11.44972 1.59009,7.02652 1.59404,10.609 0.0173,15.97604 -3.48711,11.87194 -14.93984,22.71858 -23.98811,22.71858 -2.18432,0 -5.03324,2.52361 -7.68388,6.80656 -2.31692,3.7436 -5.0104,7.30955 -5.98564,7.92433 -0.97512,0.61477 -1.77306,4.03597 -1.77306,7.60266 0,14.09878 -8.35898,37.87947 -18.70758,53.22166 -2.92213,4.3322 -4.42728,7.8767 -3.34475,7.8767 1.08265,0 6.8989,-2.4002 12.92503,-5.3338 z m -29.9077,-16.56538 c -0.43496,-31.55599 -10.58305,-57.12989 -17.34737,-43.71652 -1.08463,2.15097 -3.85367,5.97091 -6.15318,8.48872 l -4.18085,4.57786 7.39436,7.76048 c 8.02575,8.42322 16.42646,24.212 17.93815,33.71434 1.56947,9.8649 2.57051,5.2517 2.34889,-10.82488 z m 19.3386,-2.4351 c 4.4,-8.8505 8.77542,-22.13079 10.40391,-31.57847 l 1.09882,-6.37507 -6.72864,0.92057 c -4.71075,0.6445 -9.15618,-0.17472 -14.82316,-2.73165 -7.2904,-3.28941 -7.97822,-3.3519 -6.92335,-0.62909 2.28717,5.90357 5.96984,27.55904 7.00693,41.20351 1.17599,15.46948 1.90147,15.41058 9.96549,-0.8098 z m -52.84341,-36.71799 c 2.53138,-2.03107 6.47851,-6.72412 8.77148,-10.42899 2.46223,-3.9786 5.4982,-6.73615 7.41621,-6.73615 4.43308,0 8.63837,-1.78286 8.63837,-3.66229 0,-0.85371 -1.65799,-1.55221 -3.6844,-1.55221 -2.02653,0 -7.00606,-1.98555 -11.06591,-4.41234 -6.13713,-3.66862 -7.99958,-4.07483 -11.04963,-2.40988 -5.44128,2.97041 -18.00543,0.95496 -22.82249,-3.66105 -9.63929,-9.23684 -9.1405,-24.94816 1.07018,-33.71184 4.03319,-3.46164 7.0836,-4.47351 13.48569,-4.47351 7.33534,0 8.70689,-0.62085 12.0956,-5.47509 3.89367,-5.57749 6.03404,-22.335548 2.85287,-22.335548 -0.85301,0 -5.18522,1.59473 -9.62719,3.54384 l -8.07625,3.54385 -7.57622,-3.50568 c -9.55942,-4.42338 -13.00171,-4.43388 -20.0332,-0.0611 -7.2188,4.48923 -11.22717,13.990798 -9.9408,23.563668 0.81968,6.09995 0.33409,7.80388 -3.18524,11.17622 -2.2837,2.18844 -5.42597,7.38091 -6.98273,11.53882 -2.64891,7.07482 -2.6431,8.06049 0.0914,15.36291 3.49426,9.3327 9.36224,14.45651 18.20865,15.89942 5.43216,0.88602 7.25003,2.33074 10.87776,8.64485 2.39557,4.16958 6.43851,8.73412 8.9842,10.14343 6.80717,3.76844 16.15558,3.33845 21.55193,-0.9913 z m 65.30336,-13.07048 c 2.11196,-1.34443 5.75488,-5.53855 8.09538,-9.32027 2.73015,-4.41145 5.93452,-7.23718 8.94049,-7.88396 10.85727,-2.33619 15.93446,-5.96704 19.34662,-13.83526 2.83226,-6.53103 3.08141,-8.88351 1.5533,-14.67194 -1.00092,-3.79158 -3.71675,-9.19324 -6.03527,-12.00369 -3.30265,-4.00364 -4.21529,-7.06837 -4.21529,-14.156208 0,-21.50176 -15.01812,-31.98504 -33.17146,-23.15508 -5.6471,2.74679 -6.39702,2.74679 -12.044,0 -3.31216,-1.61104 -9.14001,-2.92918 -12.95096,-2.92918 -5.60772,0 -8.03341,1.12677 -12.72268,5.90976 -5.39042,5.49832 -5.79377,6.68973 -5.79377,17.11227 0,9.176888 -0.64782,11.800468 -3.58255,14.509568 -8.74381,8.07139 -10.87133,21.66511 -4.94298,31.58293 3.3003,5.5214 10.09796,9.70099 18.74992,11.52861 2.64595,0.55892 5.5166,3.28065 7.57622,7.183 7.0131,13.2884 19.74207,17.42141 31.19703,10.12945 z m -23.27376,-32.90127 c -15.0223,-12.89347 -6.30034,-38.981828 13.0327,-38.981828 15.72,0 25.88204,18.127928 18.41669,32.853338 -5.71871,11.27998 -21.79688,14.41311 -31.44939,6.12849 z m 21.99936,-8.97105 c 6.06985,-7.87093 0.71498,-21.31995 -8.48873,-21.31995 -5.81329,0 -11.96943,6.76971 -11.96943,13.16239 0,12.22973 13.24505,17.51111 20.45816,8.15756 z m -68.88231,17.32761 c 1.15364,-0.79822 1.55836,-5.67592 1.07944,-13.00963 -0.75695,-11.59144 -0.82523,-11.73261 -5.67982,-11.73261 -11.60533,0 -16.20521,13.98908 -7.28719,22.1616 4.33555,3.97317 8.55195,4.88847 11.88757,2.58064 z m -0.40459,-67.327288 c 3.36475,-1.434 8.14983,-2.60726 10.63355,-2.60726 2.5736,0 6.9852,-2.21143 10.25674,-5.14134 7.82796,-7.01057 17.89296,-9.64155 26.93099,-7.03972 12.60612,3.629 13.75693,3.71667 16.97019,1.29307 3.00362,-2.26545 3.02548,-2.70944 0.39052,-7.9069 -5.66377,-11.17185 -16.82105,-14.75033 -28.94036,-9.28209 -7.83204,3.53383 -7.94266,3.53538 -15.118,0.21311 -3.97552,-1.84072 -8.64603,-3.36393 -10.37884,-3.38492 -5.61599,-0.068 -14.82921,5.52083 -17.37318,10.53887 -2.67237,5.27115 -3.4571,25.92442 -0.98512,25.92442 0.82277,0 4.24888,-1.17326 7.61351,-2.60724 z m -17.62974,-9.51985 c 0,-5.54121 -0.88646,-7.50503 -4.46814,-9.89883 -4.63742,-3.09929 -21.49057,-9.4347 -22.46211,-8.44383 -0.30446,0.31057 2.18926,6.12005 5.54142,12.90997 l 6.09503,12.34528 7.64696,0 7.64684,0 0,-6.91259 z"
       id="path4192"
       inkscape:connector-curvature="0"
       inkscape:export-filename="/home/marcin/remote control/v3/path4192.png"
       inkscape:export-xdpi="90"
       inkscape:export-ydpi="90"
       transform="matrix(0.86425345,0,0,0.86425345,30.931967,141.97178)" />
  </g>
</svg>
