<?xml version="1.0" encoding="UTF-8" standalone="no"?>
<!-- Generator: Adobe Illustrator 18.0.0, SVG Export Plug-In . SVG Version: 6.00 Build 0)  -->

<svg
   xmlns:dc="http://purl.org/dc/elements/1.1/"
   xmlns:cc="http://creativecommons.org/ns#"
   xmlns:rdf="http://www.w3.org/1999/02/22-rdf-syntax-ns#"
   xmlns:svg="http://www.w3.org/2000/svg"
   xmlns="http://www.w3.org/2000/svg"
   xmlns:xlink="http://www.w3.org/1999/xlink"
   xmlns:sodipodi="http://sodipodi.sourceforge.net/DTD/sodipodi-0.dtd"
   xmlns:inkscape="http://www.inkscape.org/namespaces/inkscape"
   version="1.1"
   id="Capa_1"
   x="0px"
   y="0px"
   viewBox="0 0 1000 1000"
   xml:space="preserve"
   inkscape:version="0.91 r"
   sodipodi:docname="for_him_button.svg"
   inkscape:export-filename="/home/marcin/MultiDevice_Share/control_your_woman/media/common/for_him.png"
   inkscape:export-xdpi="54"
   inkscape:export-ydpi="54"
   width="1000"
   height="1000"><metadata
     id="metadata39"><rdf:RDF><cc:Work
         rdf:about=""><dc:format>image/svg+xml</dc:format><dc:type
           rdf:resource="http://purl.org/dc/dcmitype/StillImage" /><dc:title></dc:title></cc:Work></rdf:RDF></metadata><defs
     id="defs37"><marker
       inkscape:stockid="Arrow1Lend"
       orient="auto"
       refY="0.0"
       refX="0.0"
       id="Arrow1Lend"
       style="overflow:visible;"
       inkscape:isstock="true"><path
         id="path4328"
         d="M 0.0,0.0 L 5.0,-5.0 L -12.5,0.0 L 5.0,5.0 L 0.0,0.0 z "
         style="fill-rule:evenodd;stroke:#000000;stroke-width:1.0pt;"
         transform="scale(0.8) rotate(180) translate(12.5,0)" /></marker><marker
       inkscape:stockid="Arrow1Lstart"
       orient="auto"
       refY="0.0"
       refX="0.0"
       id="Arrow1Lstart"
       style="overflow:visible"
       inkscape:isstock="true"><path
         id="path4325"
         d="M 0.0,0.0 L 5.0,-5.0 L -12.5,0.0 L 5.0,5.0 L 0.0,0.0 z "
         style="fill-rule:evenodd;stroke:#000000;stroke-width:1.0pt"
         transform="scale(0.8) translate(12.5,0)" /></marker><linearGradient
       gradientTransform="translate(6.4160156e-5,-1.7001953e-5)"
       inkscape:collect="always"
       xlink:href="#linearGradient4153"
       id="linearGradient4159"
       x1="-904.59467"
       y1="1532.4341"
       x2="12531.217"
       y2="-1235.6799"
       gradientUnits="userSpaceOnUse" /><linearGradient
       inkscape:collect="always"
       id="linearGradient4153"><stop
         style="stop-color:#80b3ff;stop-opacity:1;"
         offset="0"
         id="stop4155" /><stop
         style="stop-color:#80b3ff;stop-opacity:0;"
         offset="1"
         id="stop4157" /></linearGradient><filter
       inkscape:collect="always"
       style="color-interpolation-filters:sRGB"
       id="filter4601"
       x="-0.0011909797"
       width="1.002382"
       y="-0.001209158"
       height="1.0024183"><feGaussianBlur
         inkscape:collect="always"
         stdDeviation="0.031759458"
         id="feGaussianBlur4603" /></filter><filter
       inkscape:collect="always"
       style="color-interpolation-filters:sRGB"
       id="filter4609"
       x="-0.0072"
       width="1.0144"
       y="-0.0072"
       height="1.0144"><feGaussianBlur
         inkscape:collect="always"
         stdDeviation="2.9965031"
         id="feGaussianBlur4611" /></filter></defs><sodipodi:namedview
     pagecolor="#ffffff"
     bordercolor="#666666"
     borderopacity="1"
     objecttolerance="10"
     gridtolerance="10"
     guidetolerance="10"
     inkscape:pageopacity="0"
     inkscape:pageshadow="2"
     inkscape:window-width="1680"
     inkscape:window-height="1027"
     id="namedview35"
     showgrid="false"
     inkscape:zoom="0.26030063"
     inkscape:cx="-934.47051"
     inkscape:cy="1164.9032"
     inkscape:window-x="0"
     inkscape:window-y="0"
     inkscape:window-maximized="1"
     inkscape:current-layer="Capa_1"
     inkscape:snap-global="false" /><g
     id="g5"
     transform="translate(0,773.33901)" /><g
     id="g7"
     transform="translate(0,773.33901)" /><g
     id="g9"
     transform="translate(0,773.33901)" /><g
     id="g11"
     transform="translate(0,773.33901)" /><g
     id="g13"
     transform="translate(0,773.33901)" /><g
     id="g15"
     transform="translate(0,773.33901)" /><g
     id="g17"
     transform="translate(0,773.33901)" /><g
     id="g19"
     transform="translate(0,773.33901)" /><g
     id="g21"
     transform="translate(0,773.33901)" /><g
     id="g23"
     transform="translate(0,773.33901)" /><g
     id="g25"
     transform="translate(0,773.33901)" /><g
     id="g27"
     transform="translate(0,773.33901)" /><g
     id="g29"
     transform="translate(0,773.33901)" /><g
     id="g31"
     transform="translate(0,773.33901)" /><g
     id="g33"
     transform="translate(0,773.33901)" /><rect
     style="opacity:0.9;fill:url(#linearGradient4159);fill-opacity:1;fill-rule:nonzero;stroke:#010d72;stroke-width:10;stroke-miterlimit:4;stroke-dasharray:none;stroke-dashoffset:0;stroke-opacity:1;filter:url(#filter4609)"
     id="rect4151"
     width="998.83435"
     height="998.83435"
     x="0.58282471"
     y="0.58282471"
     rx="0"
     ry="0" /><g
     id="Multicolor-7"
     transform="matrix(12.661099,0,0,12.661099,-196.36045,-202.45151)"
     style="display:inline;opacity:0.95;stroke:#1a1a1a;stroke-width:0.68619636;stroke-miterlimit:4;stroke-dasharray:none;stroke-opacity:1;filter:url(#filter4601)"><g
       id="g5115"
       style="stroke:#1a1a1a;stroke-width:0.68619636;stroke-miterlimit:4;stroke-dasharray:none;stroke-opacity:1"><path
         id="path5117"
         style="fill:#f7b4b4;stroke:#1a1a1a;stroke-width:0.68619636;stroke-miterlimit:4;stroke-dasharray:none;stroke-opacity:1"
         d="M 87,87 83.409,77.663 C 82.52,75.352 80.612,73.583 78.241,72.872 L 65,69.715 65,61.432 c -2.841,4.396 -6.716,6.473 -10,7.567 -3.281,-1.094 -7.158,-3.157 -10,-7.544 l -0.07857,7.952275 c 0,0 -6.636348,1.216027 -10.570788,2.412479 -8.226097,2.501532 -6.370899,5.594459 -7.084945,7.715779 L 55,87 Z"
         inkscape:connector-curvature="0"
         sodipodi:nodetypes="ccccccccsccc" /><path
         id="path5119"
         style="fill:#f8ff30;fill-opacity:1;stroke:#1a1a1a;stroke-width:0.68619636;stroke-miterlimit:4;stroke-dasharray:none;stroke-opacity:1"
         d="m 65,69.715 5,1.192 0,-17.126 c -0.569,0.575 -1.282,0.99 -2.178,1.145 -0.7,2.611 -1.679,4.747 -2.822,6.513 l 0,8.276 z"
         inkscape:connector-curvature="0" /><path
         id="path5123"
         style="fill:#fbc8c8;stroke:#1a1a1a;stroke-width:0.68619636;stroke-miterlimit:4;stroke-dasharray:none;stroke-opacity:1"
         d="m 70.025,45.003 c 0,0.004 0,0.01 0,0.015 -1.531,0.413 -8.763,-1.464 -9.013,-16.25 C 59.367,28.272 57.387,28 55,28 42.024,28 41.018,35.971 41,44.979 41,61.777 49,67 55,69 59.604,67.465 65.38,64.027 67.822,54.925 71.136,54.353 72,50.313 72,47.222 72,46.121 71.017,45.021 70.025,45.003 Z"
         inkscape:connector-curvature="0" /><g
         id="g5125"
         style="stroke:#1a1a1a;stroke-width:0.68619636;stroke-miterlimit:4;stroke-dasharray:none;stroke-opacity:1"><path
           id="path5127"
           style="fill:#fa5655;stroke:#1a1a1a;stroke-width:0.68619636;stroke-miterlimit:4;stroke-dasharray:none;stroke-opacity:1"
           d="M 83.409,77.663 C 82.824,76.141 81.79,74.863 80.479,73.958 78.021,78.543 67.102,82 54,82 41.943,82 31.736,79.073 28.268,75.033 c -0.715,0.752 -1.294,1.637 -1.677,2.63 L 23,87 l 32,0 32,0 -3.591,-9.337 z"
           inkscape:connector-curvature="0" /></g><g
         id="g5129"
         style="stroke:#1a1a1a;stroke-width:0.68619636;stroke-miterlimit:4;stroke-dasharray:none;stroke-opacity:1" /><g
         id="g5133"
         style="stroke:#1a1a1a;stroke-width:0.68619636;stroke-miterlimit:4;stroke-dasharray:none;stroke-opacity:1"><path
           id="path5135"
           style="fill:#3e3e3f;stroke:#1a1a1a;stroke-width:0.68619636;stroke-miterlimit:4;stroke-dasharray:none;stroke-opacity:1"
           d="m 52,47 c 0,-1.104 -0.896,-2 -2,-2 -0.002,0 -0.004,0 -0.006,0 10e-4,0.021 0.006,0.042 0.006,0.062 0,1.103 -0.892,1.996 -1.994,2 C 48.04,48.137 48.917,49 50,49 c 1.104,0 2,-0.896 2,-2 z"
           inkscape:connector-curvature="0" /></g><g
         id="g5137"
         style="stroke:#1a1a1a;stroke-width:0.68619636;stroke-miterlimit:4;stroke-dasharray:none;stroke-opacity:1"><path
           id="path5139"
           style="fill:#3e3e3f;stroke:#1a1a1a;stroke-width:0.68619636;stroke-miterlimit:4;stroke-dasharray:none;stroke-opacity:1"
           d="m 61.994,47 c 0,-1.104 -0.896,-2 -2,-2 -0.002,0 -0.004,0 -0.006,0 10e-4,0.021 0.006,0.041 0.006,0.062 0,1.103 -0.892,1.996 -1.994,2 0.033,1.075 0.91,1.938 1.994,1.938 1.104,0 2,-0.896 2,-2 z"
           inkscape:connector-curvature="0" /></g><g
         id="g5141"
         style="stroke:#1a1a1a;stroke-width:0.68619636;stroke-miterlimit:4;stroke-dasharray:none;stroke-opacity:1"><path
           id="path5143"
           style="fill:#f79392;stroke:#1a1a1a;stroke-width:0.68619636;stroke-miterlimit:4;stroke-dasharray:none;stroke-opacity:1"
           d="m 50,58 10,0 c 0,0 0,3 -5,3 -5,0 -5,-3 -5,-3 z"
           inkscape:connector-curvature="0" /></g><g
         id="g5145"
         style="stroke:#1a1a1a;stroke-width:0.68619636;stroke-miterlimit:4;stroke-dasharray:none;stroke-opacity:1"><path
           id="path5147"
           style="fill:#f8ff30;fill-opacity:1;stroke:#000000;stroke-width:0.68619636;stroke-miterlimit:4;stroke-dasharray:none;stroke-opacity:1"
           d="m 37,39 0,46 c 0,0 5.657415,-6 5.657415,-24.293 l 0,-15.707 C 42.657415,38.282956 62,37 61,28 61,20 37,24 37,39 Z"
           inkscape:connector-curvature="0"
           sodipodi:nodetypes="scsscs" /></g><g
         id="g5149"
         style="stroke:#1a1a1a;stroke-width:0.68619636;stroke-miterlimit:4;stroke-dasharray:none;stroke-opacity:1"><path
           id="path5151"
           style="fill:#f8ff30;fill-opacity:1;stroke:#1a1a1a;stroke-width:0.68619636;stroke-miterlimit:4;stroke-dasharray:none;stroke-opacity:1"
           d="m 61,28.066 c 0.025,15.439 7.469,17.372 9.025,16.953 0,-3.253 2.124,-16.976 -8.958,-17.018 C 61.031,28 61,28.031 61,28.066 Z"
           inkscape:connector-curvature="0" /></g><g
         id="g5153"
         style="stroke:#1a1a1a;stroke-width:0.68619636;stroke-miterlimit:4;stroke-dasharray:none;stroke-opacity:1"><path
           id="path5155"
           style="fill:#ff0000;fill-opacity:1;stroke:#1a1a1a;stroke-width:0.68619636;stroke-miterlimit:4;stroke-dasharray:none;stroke-opacity:1"
           d="m 69.347,56 1.527,3.687 c 0.256,0.618 0.114,1.329 -0.358,1.801 -0.646,0.646 -1.692,0.646 -2.338,0 -0.473,-0.473 -0.614,-1.184 -0.358,-1.801 L 69.347,56 Z"
           inkscape:connector-curvature="0" /></g></g></g></svg>